<svg width="20" height="21" viewBox="0 0 20 21" fill="none" xmlns="http://www.w3.org/2000/svg">
<path fill-rule="evenodd" clip-rule="evenodd" d="M11.0415 15.5C11.0415 15.1548 11.3213 14.875 11.6665 14.875L17.4998 14.875C17.845 14.875 18.1248 15.1548 18.1248 15.5C18.1248 15.8452 17.845 16.125 17.4998 16.125L11.6665 16.125C11.3213 16.125 11.0415 15.8452 11.0415 15.5Z" fill="black"/>
<path fill-rule="evenodd" clip-rule="evenodd" d="M1.875 15.5C1.875 15.1548 2.15482 14.875 2.5 14.875H4.16667C4.51184 14.875 4.79167 15.1548 4.79167 15.5C4.79167 15.8452 4.51184 16.125 4.16667 16.125H2.5C2.15482 16.125 1.875 15.8452 1.875 15.5Z" fill="black"/>
<path fill-rule="evenodd" clip-rule="evenodd" d="M6.24984 14.0417C5.44442 14.0417 4.7915 14.6946 4.7915 15.5C4.7915 16.3054 5.44442 16.9583 6.24984 16.9583C7.05525 16.9583 7.70817 16.3054 7.70817 15.5C7.70817 14.6946 7.05525 14.0417 6.24984 14.0417ZM3.5415 15.5C3.5415 14.0042 4.75407 12.7917 6.24984 12.7917C7.74561 12.7917 8.95817 14.0042 8.95817 15.5C8.95817 16.9958 7.74561 18.2083 6.24984 18.2083C4.75407 18.2083 3.5415 16.9958 3.5415 15.5Z" fill="black"/>
<path fill-rule="evenodd" clip-rule="evenodd" d="M16.0415 10.5C16.0415 10.1548 16.3213 9.875 16.6665 9.875H17.4998C17.845 9.875 18.1248 10.1548 18.1248 10.5C18.1248 10.8452 17.845 11.125 17.4998 11.125H16.6665C16.3213 11.125 16.0415 10.8452 16.0415 10.5Z" fill="black"/>
<path fill-rule="evenodd" clip-rule="evenodd" d="M1.875 10.5C1.875 10.1548 2.15482 9.875 2.5 9.875H8.33333C8.67851 9.875 8.95833 10.1548 8.95833 10.5C8.95833 10.8452 8.67851 11.125 8.33333 11.125H2.5C2.15482 11.125 1.875 10.8452 1.875 10.5Z" fill="black"/>
<path fill-rule="evenodd" clip-rule="evenodd" d="M13.7498 9.04167C12.9444 9.04167 12.2915 9.69459 12.2915 10.5C12.2915 11.3054 12.9444 11.9583 13.7498 11.9583C14.5553 11.9583 15.2082 11.3054 15.2082 10.5C15.2082 9.69459 14.5553 9.04167 13.7498 9.04167ZM11.0415 10.5C11.0415 9.00423 12.2541 7.79167 13.7498 7.79167C15.2456 7.79167 16.4582 9.00423 16.4582 10.5C16.4582 11.9958 15.2456 13.2083 13.7498 13.2083C12.2541 13.2083 11.0415 11.9958 11.0415 10.5Z" fill="black"/>
<path fill-rule="evenodd" clip-rule="evenodd" d="M10.2085 5.5C10.2085 5.15482 10.4883 4.875 10.8335 4.875H17.5002C17.8453 4.875 18.1252 5.15482 18.1252 5.5C18.1252 5.84518 17.8453 6.125 17.5002 6.125H10.8335C10.4883 6.125 10.2085 5.84518 10.2085 5.5Z" fill="black"/>
<path fill-rule="evenodd" clip-rule="evenodd" d="M1.875 5.5C1.875 5.15482 2.15482 4.875 2.5 4.875H3.33333C3.67851 4.875 3.95833 5.15482 3.95833 5.5C3.95833 5.84518 3.67851 6.125 3.33333 6.125H2.5C2.15482 6.125 1.875 5.84518 1.875 5.5Z" fill="black"/>
<path fill-rule="evenodd" clip-rule="evenodd" d="M3 5.5C3 5.15482 3.27982 4.875 3.625 4.875H4.45833C4.80351 4.875 5.08333 5.15482 5.08333 5.5C5.08333 5.84518 4.80351 6.125 4.45833 6.125H3.625C3.27982 6.125 3 5.84518 3 5.5Z" fill="black"/>
<path fill-rule="evenodd" clip-rule="evenodd" d="M8.74984 4.04167C7.94442 4.04167 7.2915 4.69459 7.2915 5.50001C7.2915 6.30542 7.94442 6.95834 8.74984 6.95834C9.55525 6.95834 10.2082 6.30542 10.2082 5.50001C10.2082 4.69459 9.55525 4.04167 8.74984 4.04167ZM6.0415 5.50001C6.0415 4.00423 7.25407 2.79167 8.74984 2.79167C10.2456 2.79167 11.4582 4.00423 11.4582 5.50001C11.4582 6.99578 10.2456 8.20834 8.74984 8.20834C7.25407 8.20834 6.0415 6.99578 6.0415 5.50001Z" fill="black"/>
</svg>
