<svg width="24" height="24" viewBox="0 0 24 24" fill="none" xmlns="http://www.w3.org/2000/svg">
<path d="M3.7361 1.57499C2.98142 1.7578 2.20798 2.36718 1.84235 3.07499C1.48142 3.76874 1.50017 3.47342 1.50017 8.62499C1.50017 13.7156 1.4861 13.4766 1.80485 14.1094C2.19392 14.8828 2.94392 15.4875 3.75954 15.6797C4.20954 15.7828 19.7955 15.7828 20.2455 15.6797C21.0189 15.4969 21.7877 14.8922 22.1627 14.1703C22.5142 13.4953 22.5002 13.7391 22.5002 8.60624C22.5002 3.47342 22.5189 3.76874 22.158 3.07499C21.7877 2.3578 21.0189 1.75311 20.2455 1.5703C19.8095 1.46717 4.15798 1.47186 3.7361 1.57499ZM20.0627 3.1453C20.4377 3.31874 20.6486 3.52499 20.822 3.88124L20.9767 4.1953V8.62499V13.0547L20.822 13.3687C20.6486 13.725 20.4377 13.9312 20.0627 14.1047L19.8049 14.2266H12.0002H4.19548L3.88142 14.0719C3.52517 13.8984 3.31892 13.6875 3.14548 13.3125L3.0236 13.0547V8.62499V4.1953L3.14548 3.93749C3.2111 3.79218 3.33298 3.59999 3.41267 3.51092C3.60017 3.2953 3.98454 3.08905 4.28454 3.04686C4.41579 3.02811 7.96423 3.01405 12.1642 3.01874L19.8049 3.02343L20.0627 3.1453Z" fill="#E1C7A5"/>
<path d="M9.69844 4.88908C9.21563 5.02501 8.89688 5.30158 8.67656 5.76564L8.55469 6.02345V8.67189V11.3203L8.6625 11.5547C8.79375 11.836 8.99531 12.0563 9.27656 12.225C9.54375 12.3797 10.1438 12.4266 10.4203 12.3094C10.6359 12.2203 14.8266 9.46408 15.0141 9.28595C15.0891 9.22033 15.2063 9.07033 15.2719 8.95314C15.3844 8.76095 15.3984 8.69533 15.3984 8.27345C15.3984 7.90314 15.3797 7.7672 15.3094 7.62189C15.0984 7.20001 15.0047 7.13908 12.6422 5.97658C10.2328 4.78595 10.1578 4.76251 9.69844 4.88908ZM11.9625 7.38283L13.7672 8.26876L11.9438 9.47814C10.9406 10.1438 10.1109 10.6875 10.0969 10.6875C10.0875 10.6875 10.0781 9.73595 10.0781 8.57345C10.0781 7.37345 10.0969 6.46876 10.1203 6.47814C10.1438 6.48283 10.9734 6.89064 11.9625 7.38283Z" fill="#E1C7A5"/>
<path d="M3.37578 17.3389C2.49922 17.6201 1.83828 18.2951 1.57578 19.167C1.47734 19.5045 1.47734 20.2451 1.57578 20.5826C1.83359 21.4639 2.53203 22.1623 3.41797 22.4248C3.74141 22.5185 4.43984 22.5232 4.79609 22.4295C5.67266 22.1998 6.40859 21.4779 6.67578 20.5826C6.77422 20.2451 6.77422 19.5045 6.67578 19.167C6.41328 18.281 5.71484 17.5826 4.83359 17.3248C4.48203 17.2217 3.71797 17.2264 3.37578 17.3389ZM4.67422 18.9373C5.39141 19.3498 5.39141 20.3998 4.67422 20.8123C4.32734 21.0139 3.92422 21.0139 3.57734 20.8123C2.86016 20.3998 2.86016 19.3498 3.57734 18.9373C3.77891 18.8201 3.87266 18.7967 4.12578 18.7967C4.37891 18.7967 4.47266 18.8201 4.67422 18.9373Z" fill="#E1C7A5"/>
<path d="M8.5875 18.0938C8.3625 18.2344 8.25 18.4453 8.25 18.75C8.25 19.0547 8.3625 19.2656 8.5875 19.4062C8.7375 19.4953 8.83125 19.5 12.75 19.5C16.6688 19.5 16.7625 19.4953 16.9125 19.4062C17.1375 19.2656 17.25 19.0547 17.25 18.75C17.25 18.4453 17.1375 18.2344 16.9125 18.0938C16.7625 18.0047 16.6688 18 12.75 18C8.83125 18 8.7375 18.0047 8.5875 18.0938Z" fill="#E1C7A5"/>
<path d="M8.5875 21.0938C8.3625 21.2344 8.25 21.4453 8.25 21.75C8.25 22.0547 8.3625 22.2656 8.5875 22.4062C8.74219 22.5 8.84063 22.5 15.375 22.5C21.9094 22.5 22.0078 22.5 22.1625 22.4062C22.3875 22.2656 22.5 22.0547 22.5 21.75C22.5 21.4453 22.3875 21.2344 22.1625 21.0938C22.0078 21 21.9094 21 15.375 21C8.84063 21 8.74219 21 8.5875 21.0938Z" fill="#E1C7A5"/>
</svg>
