<svg width="24" height="25" viewBox="0 0 24 25" fill="none" xmlns="http://www.w3.org/2000/svg">
<path d="M3.42188 1.56041C2.54531 1.69652 1.81875 2.34305 1.575 3.20347C1.50938 3.44166 1.5 4.39444 1.5 12.4493C1.5 21.1264 1.50469 21.4375 1.58906 21.7243C1.80469 22.4486 2.39063 23.0368 3.11719 23.2701C3.38438 23.3528 3.80156 23.3576 12 23.3576C20.1984 23.3576 20.6156 23.3528 20.8828 23.2701C21.6094 23.0368 22.1953 22.4486 22.4109 21.7243C22.4953 21.4375 22.5 21.1556 22.5 14.0049C22.5 7.36944 22.4906 6.55277 22.425 6.31458C22.2234 5.6 21.6562 5.00208 20.9391 4.7493C20.6531 4.64236 20.5922 4.64236 16.5 4.62777L12.3516 4.60833L11.5078 3.49027C11.0438 2.87777 10.5516 2.27013 10.4156 2.13889C10.1016 1.8375 9.66563 1.61388 9.27656 1.55555C8.91094 1.49722 3.78281 1.50208 3.42188 1.56041ZM9.26719 3.2375C9.3375 3.29097 9.85313 3.9375 10.4156 4.67152C10.9734 5.40555 11.4984 6.05208 11.5828 6.11041L11.7328 6.22222H16.0031C18.6609 6.22222 20.3344 6.24166 20.4375 6.27083C20.6719 6.33888 20.8922 6.5868 20.9484 6.85416C21.0141 7.15555 21.0141 20.8444 20.9484 21.1458C20.8922 21.4132 20.6719 21.6611 20.4375 21.7292C20.2125 21.7972 3.7875 21.7972 3.5625 21.7292C3.32813 21.6611 3.10781 21.4132 3.05156 21.1458C2.98125 20.8396 2.98125 4.07847 3.05156 3.75277C3.10313 3.48541 3.31406 3.23264 3.54375 3.15972C3.61875 3.13541 4.90781 3.12083 6.40781 3.12569C9.09375 3.13541 9.13594 3.13541 9.26719 3.2375Z" fill="#E1C7A5"/>
<path d="M11.25 8.63332C10.3969 8.87151 9.68438 9.47429 9.27656 10.3153C9.04688 10.7868 9 11.0979 9 12.2111V13.2222H8.84531C8.53125 13.2222 8.24063 13.3729 7.94063 13.6792C7.49531 14.141 7.5 14.1118 7.5 16.3382C7.5 18.3944 7.50469 18.4285 7.78125 18.8271C7.97813 19.1139 8.33438 19.3521 8.68594 19.4298C8.90625 19.4736 9.69375 19.493 11.9813 19.493C15.0656 19.493 15.3656 19.4785 15.7031 19.2986C15.9422 19.1722 16.2422 18.8465 16.3688 18.5792C16.4766 18.3555 16.4766 18.3264 16.4906 16.4111C16.5047 14.1118 16.5094 14.1507 16.0594 13.6792C15.7594 13.3729 15.4688 13.2222 15.1547 13.2222H15V12.2257C15 11.1271 14.9672 10.8743 14.7422 10.3785C14.3531 9.50346 13.6266 8.87151 12.7266 8.62846C12.375 8.5361 11.5969 8.5361 11.25 8.63332ZM12.6938 10.3298C12.9984 10.5 13.1953 10.7236 13.35 11.0833C13.4625 11.3312 13.4719 11.4139 13.4906 12.284L13.5141 13.2222H12H10.4859L10.5094 12.284C10.5281 11.4576 10.5422 11.3215 10.6359 11.1125C10.9219 10.4465 11.3813 10.1451 12.0703 10.1743C12.3797 10.1889 12.4922 10.2132 12.6938 10.3298ZM15 16.3576V17.8889H12H9V16.3576V14.8264H12H15V16.3576Z" fill="#E1C7A5"/>
</svg>
