<svg width="25" height="24" viewBox="0 0 25 24" fill="none" xmlns="http://www.w3.org/2000/svg">
<path d="M4.78852 1.56563C4.11283 1.77656 3.65102 2.15625 3.33991 2.75625L3.13574 3.15469V12V20.8453L3.33991 21.2438C3.59755 21.7359 3.94269 22.0641 4.47255 22.3078L4.83713 22.4766H10.8941H16.951L17.3594 22.2797C17.8795 22.0313 18.21 21.7078 18.4628 21.2016L18.6427 20.8359L18.6573 19.6641C18.667 18.5578 18.667 18.4828 18.5698 18.3375C18.4239 18.1078 18.2052 18 17.8892 18C17.5732 18 17.3545 18.1125 17.2087 18.3375C17.1212 18.4781 17.1114 18.5766 17.1114 19.3359C17.1114 19.8 17.0871 20.2734 17.058 20.3906C16.9899 20.6813 16.7712 20.8875 16.4698 20.9484C16.1392 21.0188 5.63921 21.0188 5.30866 20.9484C5.00727 20.8875 4.78852 20.6813 4.72046 20.3906C4.64755 20.1 4.64755 3.9 4.72046 3.60938C4.78852 3.31875 5.00727 3.1125 5.30866 3.05156C5.43991 3.02344 6.0913 3 6.75727 3H7.96283L8.28852 3.93281C8.61908 4.89844 8.70658 5.0625 8.94477 5.17969C9.1538 5.28281 12.6246 5.28281 12.8337 5.17969C13.0719 5.0625 13.1594 4.89844 13.4899 3.93281L13.8156 3H15.0212C16.4017 3 16.6399 3.03281 16.8587 3.24844C17.0677 3.45938 17.1066 3.68906 17.1114 4.66406C17.1114 5.42344 17.1212 5.52188 17.2087 5.6625C17.3545 5.8875 17.5732 6 17.8892 6C18.2052 6 18.4239 5.8875 18.5698 5.6625C18.6573 5.52188 18.667 5.42344 18.667 4.41563C18.667 3.44063 18.6573 3.29531 18.5649 3.0375C18.3219 2.34375 17.792 1.82813 17.0677 1.59375C16.7809 1.5 16.6837 1.5 10.8795 1.50469C6.22741 1.50469 4.94408 1.51875 4.78852 1.56563ZM12.0948 3.05625C12.0802 3.08906 12.0219 3.25781 11.9635 3.43125L11.8517 3.75H10.8892H9.92671L9.81491 3.43125C9.75658 3.25781 9.69824 3.08906 9.68366 3.05625C9.66908 3.01406 9.92671 3 10.8892 3C11.8517 3 12.1094 3.01406 12.0948 3.05625Z" fill="#E1C7A5"/>
<path d="M11.7885 7.56562C11.1128 7.77656 10.651 8.15625 10.3399 8.75625L10.1357 9.15468V12V14.8453L10.3399 15.2437C10.5975 15.7359 10.9427 16.0641 11.4725 16.3078C11.8323 16.4719 11.8517 16.4766 12.5323 16.4906L13.2225 16.5094V17.3812C13.2225 18.3609 13.2517 18.4687 13.5725 18.6562C13.7524 18.7594 14.1802 18.7828 14.3552 18.6984C14.4135 18.6703 14.9677 18.1641 15.5802 17.5734L16.6982 16.5047L18.3753 16.4906L20.0524 16.4766L20.4316 16.3031C20.9566 16.0594 21.292 15.7406 21.5496 15.2391L21.7538 14.8453L21.7684 12.0891C21.783 9.40312 21.7781 9.32812 21.6809 9.04218C21.433 8.34375 20.9031 7.83281 20.1788 7.59375C19.892 7.50468 19.785 7.5 15.935 7.50468C12.8628 7.50468 11.9392 7.51875 11.7885 7.56562ZM19.5809 9.05156C19.8823 9.1125 20.101 9.31875 20.1691 9.60937C20.2371 9.89531 20.2371 14.1047 20.1691 14.3906C20.101 14.6812 19.8823 14.8875 19.5809 14.9484C19.4399 14.9812 18.667 15 17.7142 15C16.6156 15 16.0517 15.0187 15.9788 15.0516C15.9205 15.0797 15.6239 15.3375 15.3274 15.6234L14.7781 16.1484V15.8203C14.7781 15.4406 14.6809 15.2437 14.4281 15.0937C14.2823 15.0094 14.1802 15 13.4073 15C12.9357 15 12.4399 14.9766 12.3087 14.9484C12.0073 14.8875 11.7885 14.6812 11.7205 14.3906C11.6524 14.1047 11.6524 9.92343 11.7205 9.61875C11.7788 9.3375 11.9975 9.11718 12.2746 9.05156C12.5517 8.99062 19.2795 8.98593 19.5809 9.05156Z" fill="#E1C7A5"/>
</svg>
