<svg width="24" height="24" viewBox="0 0 24 24" fill="none" xmlns="http://www.w3.org/2000/svg">
<path d="M8.81738 3.91875C7.86582 4.17656 7.09238 4.96406 6.86738 5.91562C6.76426 6.36094 6.76426 17.8781 6.86738 18.3234C7.04551 19.0781 7.60332 19.7672 8.30176 20.1C8.51738 20.2031 8.80801 20.3109 8.94395 20.3391C9.11738 20.3766 10.908 20.3906 14.7096 20.3906C19.4627 20.3906 20.2689 20.3812 20.5268 20.3203C21.4736 20.0953 22.2986 19.2703 22.5236 18.3234C22.6268 17.8781 22.6268 6.36094 22.5236 5.91562C22.2986 4.95469 21.5205 4.16719 20.5549 3.91406C20.1471 3.81094 9.21113 3.81094 8.81738 3.91875ZM12.0564 9.27656C12.0705 13.1203 12.0705 13.1672 12.1689 13.2937C12.3189 13.5 12.4877 13.6031 12.7174 13.6266C13.1252 13.6734 13.2049 13.6172 13.983 12.6844L14.7002 11.8312L15.3939 12.6703C16.1627 13.5937 16.2564 13.6687 16.6549 13.6266C16.8939 13.6078 17.0674 13.5047 17.2221 13.2937C17.3205 13.1672 17.3205 13.1203 17.3346 9.27656L17.3439 5.39062H18.7127C19.6127 5.39062 20.1377 5.40937 20.2549 5.44687C20.5127 5.52187 20.808 5.78906 20.9346 6.06562L21.0471 6.30469V12.1172C21.0471 17.8641 21.0424 17.9344 20.9486 18.1406C20.8314 18.3984 20.658 18.5859 20.4143 18.7172L20.2268 18.8203H14.6955H9.16426L8.97676 18.7172C8.73301 18.5859 8.55957 18.3984 8.44238 18.1406C8.34863 17.9344 8.34395 17.8641 8.34395 12.1172V6.30469L8.45645 6.06562C8.57832 5.80312 8.8502 5.54531 9.09863 5.45625C9.21113 5.41406 9.68457 5.39531 10.6502 5.39531L12.0471 5.39062L12.0564 9.27656ZM15.7971 8.04844C15.7971 9.50625 15.7877 10.6922 15.7783 10.6828C15.7689 10.6734 15.633 10.5094 15.4689 10.3172C15.1596 9.95625 14.9768 9.84375 14.6955 9.84375C14.4236 9.84375 14.2408 9.95156 13.9689 10.2703C13.833 10.4344 13.6877 10.6031 13.6549 10.6406C13.6033 10.6969 13.5939 10.2516 13.5939 8.04844V5.39062H14.6955H15.7971V8.04844Z" fill="#E1C7A5"/>
<path d="M1.8375 6.09375C1.60781 6.23438 1.5 6.44532 1.5 6.75469C1.5 7.06407 1.61719 7.275 1.875 7.425C2.02969 7.51875 2.12344 7.52344 3.53906 7.5375C5.2125 7.55625 5.46094 7.5375 5.67656 7.39219C6.13125 7.0875 6.12656 6.4125 5.67188 6.10782C5.51719 6 5.50781 6 3.75469 6C2.07656 6 1.98281 6.00469 1.8375 6.09375Z" fill="#E1C7A5"/>
<path d="M3.39854 9.79219C3.24854 9.85781 3.05635 10.0734 2.99542 10.2516C2.88292 10.5891 3.00948 10.9266 3.32823 11.1422C3.47823 11.2453 3.52042 11.25 4.5001 11.25C5.47979 11.25 5.52198 11.2453 5.67198 11.1422C6.13135 10.8375 6.13135 10.1625 5.67198 9.85781C5.52198 9.75469 5.47979 9.75 4.50479 9.75469C3.94698 9.75469 3.4501 9.77344 3.39854 9.79219Z" fill="#E1C7A5"/>
<path d="M2.07656 13.5C1.70156 13.5891 1.5 13.8516 1.5 14.25C1.5 14.5547 1.6125 14.7656 1.8375 14.9062C1.98281 14.9953 2.07656 15 3.75469 15C5.50781 15 5.51719 15 5.67187 14.8922C5.89687 14.7469 6.00937 14.5266 6.00937 14.25C6.00937 13.8656 5.78437 13.5844 5.40937 13.5C5.18906 13.4484 2.29219 13.4484 2.07656 13.5Z" fill="#E1C7A5"/>
<path d="M3.3375 17.3438C3.10781 17.4844 3 17.6953 3 18.0047C3 18.3141 3.11719 18.525 3.375 18.675C3.51562 18.7594 3.6375 18.7734 4.27969 18.7922C5.17031 18.8109 5.475 18.7781 5.67656 18.6422C6.13125 18.3375 6.12656 17.6625 5.67188 17.3578C5.52188 17.2547 5.47969 17.25 4.50469 17.25C3.57656 17.25 3.47813 17.2594 3.3375 17.3438Z" fill="#E1C7A5"/>
</svg>
