<svg width="37" height="37" viewBox="0 0 37 37" fill="none" xmlns="http://www.w3.org/2000/svg">
<path d="M13.5923 6.0414C12.1253 6.43887 10.9329 7.65293 10.586 9.11992C10.4271 9.80644 10.4271 27.5621 10.586 28.2486C10.8606 29.4121 11.7206 30.4744 12.7974 30.9875C13.1298 31.1465 13.5778 31.3127 13.7874 31.3561C14.0548 31.4139 16.8153 31.4355 22.6761 31.4355C30.0038 31.4355 31.2468 31.4211 31.6442 31.3271C33.104 30.9803 34.3759 29.7084 34.7228 28.2486C34.8817 27.5621 34.8817 9.80644 34.7228 9.11992C34.3759 7.63848 33.1763 6.42441 31.6876 6.03418C31.0589 5.87519 14.1993 5.87519 13.5923 6.0414ZM18.5858 14.3014C18.6075 20.2271 18.6075 20.2994 18.7593 20.4945C18.9905 20.8125 19.2507 20.9715 19.6048 21.0076C20.2335 21.0799 20.3563 20.9932 21.556 19.5551L22.6616 18.2398L23.7312 19.5334C24.9163 20.957 25.0608 21.0727 25.6751 21.0076C26.0437 20.9787 26.311 20.8197 26.5495 20.4945C26.7013 20.2994 26.7013 20.2271 26.7229 14.3014L26.7374 8.31054H28.8476C30.2351 8.31054 31.0444 8.33945 31.2251 8.39726C31.6226 8.51289 32.0778 8.9248 32.2729 9.35117L32.4464 9.71972V18.6807C32.4464 27.5404 32.4392 27.6488 32.2946 27.9668C32.114 28.3643 31.8466 28.6533 31.4708 28.8557L31.1817 29.0146H22.6544H14.1271L13.838 28.8557C13.4622 28.6533 13.1948 28.3643 13.0142 27.9668C12.8696 27.6488 12.8624 27.5404 12.8624 18.6807V9.71972L13.0358 9.35117C13.2237 8.94648 13.6429 8.54902 14.0259 8.41172C14.1993 8.34668 14.9292 8.31777 16.4179 8.31777L18.5714 8.31054L18.5858 14.3014ZM24.3526 12.408C24.3526 14.6555 24.3382 16.4838 24.3237 16.4693C24.3093 16.4549 24.0997 16.202 23.8468 15.9057C23.3698 15.3492 23.088 15.1758 22.6544 15.1758C22.2353 15.1758 21.9534 15.342 21.5343 15.8334C21.3247 16.0863 21.1007 16.3465 21.0501 16.4043C20.9706 16.491 20.9562 15.8045 20.9562 12.408V8.31054H22.6544H24.3526V12.408Z" fill="#E1C7A5"/>
<path d="M2.83281 9.39455C2.47871 9.61135 2.3125 9.93654 2.3125 10.4135C2.3125 10.8904 2.49316 11.2156 2.89062 11.4469C3.1291 11.5914 3.27363 11.5987 5.45605 11.6203C8.03594 11.6492 8.41895 11.6203 8.75137 11.3963C9.45234 10.9266 9.44512 9.88595 8.74414 9.41623C8.50566 9.25002 8.49121 9.25002 5.78848 9.25002C3.20137 9.25002 3.05684 9.25724 2.83281 9.39455Z" fill="#E1C7A5"/>
<path d="M5.23836 15.0963C5.00711 15.1975 4.71082 15.5299 4.61688 15.8045C4.44344 16.3248 4.63856 16.8451 5.12996 17.1775C5.36121 17.3365 5.42625 17.3438 6.9366 17.3438C8.44695 17.3438 8.51199 17.3365 8.74324 17.1775C9.45145 16.7078 9.45145 15.6672 8.74324 15.1975C8.51199 15.0385 8.44695 15.0312 6.94383 15.0385C6.08387 15.0385 5.31785 15.0674 5.23836 15.0963Z" fill="#E1C7A5"/>
<path d="M3.20137 20.8125C2.62324 20.9498 2.3125 21.3545 2.3125 21.9687C2.3125 22.4385 2.48594 22.7637 2.83281 22.9805C3.05684 23.1178 3.20137 23.125 5.78848 23.125C8.49121 23.125 8.50566 23.125 8.74414 22.9588C9.09101 22.7348 9.26445 22.3951 9.26445 21.9687C9.26445 21.3762 8.91758 20.9426 8.33945 20.8125C7.9998 20.733 3.53379 20.733 3.20137 20.8125Z" fill="#E1C7A5"/>
<path d="M5.14531 26.7383C4.79121 26.9551 4.625 27.2803 4.625 27.7572C4.625 28.2342 4.80566 28.5594 5.20312 28.7906C5.41992 28.9207 5.60781 28.9424 6.59785 28.9713C7.9709 29.0002 8.44062 28.9496 8.75137 28.74C9.45234 28.2703 9.44512 27.2297 8.74414 26.76C8.51289 26.601 8.44785 26.5938 6.94473 26.5938C5.51387 26.5938 5.36211 26.6082 5.14531 26.7383Z" fill="#E1C7A5"/>
</svg>
