<svg width="37" height="37" viewBox="0 0 37 37" fill="none" xmlns="http://www.w3.org/2000/svg">
<g clip-path="url(#clip0_334_1684)">
<path fill-rule="evenodd" clip-rule="evenodd" d="M18.4993 3.08333C13.3907 3.08333 9.24935 7.2247 9.24935 12.3333C9.24935 17.442 13.3907 21.5833 18.4993 21.5833C23.608 21.5833 27.7493 17.442 27.7493 12.3333C27.7493 7.2247 23.608 3.08333 18.4993 3.08333ZM6.16602 12.3333C6.16602 5.52182 11.6878 0 18.4993 0C25.3109 0 30.8327 5.52182 30.8327 12.3333C30.8327 19.1448 25.3109 24.6667 18.4993 24.6667C11.6878 24.6667 6.16602 19.1448 6.16602 12.3333Z" fill="#E1C7A5"/>
<path fill-rule="evenodd" clip-rule="evenodd" d="M24.1402 19.8701C24.9842 19.7581 25.7592 20.3515 25.8712 21.1956L27.7366 35.2556C27.8145 35.8424 27.5495 36.422 27.0547 36.7469C26.5599 37.0719 25.9228 37.0849 25.4152 36.7803L18.5 32.6312L11.5849 36.7803C11.0773 37.0849 10.4401 37.0719 9.94527 36.7469C9.45049 36.4218 9.18551 35.8422 9.26346 35.2554L11.1289 21.2108C11.241 20.3668 12.0161 19.7734 12.8601 19.8855C13.7041 19.9976 14.2975 20.7727 14.1854 21.6168L12.7411 32.4909L17.7069 29.5114C18.1951 29.2184 18.805 29.2184 19.2932 29.5114L24.2595 32.4912L22.8147 21.6011C22.7027 20.7571 23.2961 19.9821 24.1402 19.8701Z" fill="#E1C7A5"/>
</g>
<defs>
<clipPath id="clip0_334_1684">
<rect width="37" height="37" fill="white"/>
</clipPath>
</defs>
</svg>
