<svg width="37" height="37" viewBox="0 0 37 37" fill="none" xmlns="http://www.w3.org/2000/svg">
<path d="M30.2623 5.62709C30.0832 5.48221 29.8739 5.3793 29.6498 5.32595C29.4257 5.27259 29.1925 5.27013 28.9673 5.31876C27.3199 5.664 25.6193 5.6684 23.9702 5.33168C22.321 4.99496 20.7583 4.32425 19.3781 3.36084C19.12 3.18181 18.8134 3.08588 18.4994 3.08588C18.1853 3.08588 17.8787 3.18181 17.6206 3.36084C16.2404 4.32425 14.6777 4.99496 13.0285 5.33168C11.3794 5.6684 9.67881 5.664 8.03144 5.31876C7.80626 5.27013 7.57305 5.27259 7.34895 5.32595C7.12484 5.3793 6.91555 5.48221 6.73644 5.62709C6.55758 5.77219 6.41349 5.95552 6.31478 6.16361C6.21607 6.37171 6.16524 6.59927 6.16602 6.82959V18.315C6.16465 20.5254 6.69138 22.7041 7.70235 24.6697C8.71332 26.6353 10.1793 28.331 11.9781 29.6154L17.6052 33.6238C17.8663 33.8097 18.1788 33.9096 18.4994 33.9096C18.8199 33.9096 19.1324 33.8097 19.3935 33.6238L25.0206 29.6154C26.8195 28.331 28.2854 26.6353 29.2964 24.6697C30.3073 22.7041 30.8341 20.5254 30.8327 18.315V6.82959C30.8335 6.59927 30.7826 6.37171 30.6839 6.16361C30.5852 5.95552 30.4411 5.77219 30.2623 5.62709ZM27.7494 18.315C27.7505 20.0336 27.3413 21.7276 26.5556 23.2561C25.7699 24.7845 24.6305 26.1033 23.2323 27.1025L18.4994 30.4788L13.7664 27.1025C12.3682 26.1033 11.2288 24.7845 10.4431 23.2561C9.65746 21.7276 9.24818 20.0336 9.24936 18.315V8.60251C12.4814 8.87913 15.7183 8.12925 18.4994 6.45959C21.2805 8.12925 24.5174 8.87913 27.7494 8.60251V18.315ZM20.8735 14.7846L16.7264 18.9471L15.3544 17.5596C15.0641 17.2693 14.6703 17.1062 14.2598 17.1062C13.8492 17.1062 13.4555 17.2693 13.1652 17.5596C12.8749 17.8499 12.7118 18.2436 12.7118 18.6542C12.7118 19.0647 12.8749 19.4585 13.1652 19.7488L15.6319 22.2154C15.7752 22.3599 15.9457 22.4746 16.1336 22.5529C16.3214 22.6311 16.5229 22.6714 16.7264 22.6714C16.93 22.6714 17.1315 22.6311 17.3193 22.5529C17.5072 22.4746 17.6777 22.3599 17.821 22.2154L23.1244 16.9583C23.4147 16.668 23.5777 16.2743 23.5777 15.8638C23.5777 15.4532 23.4147 15.0595 23.1244 14.7692C22.8341 14.4789 22.4403 14.3158 22.0298 14.3158C21.6192 14.3158 21.2255 14.4789 20.9352 14.7692L20.8735 14.7846Z" fill="#E1C7A5"/>
</svg>
