<svg width="64" height="18" viewBox="0 0 64 18" fill="none" xmlns="http://www.w3.org/2000/svg">
<g clip-path="url(#clip0_334_1557)">
<path d="M35.6352 1.90298L31.5959 10.6343H31.192V0H25.4473V18H30.3168C31.5959 18 32.7628 17.2612 33.3014 16.097L37.3407 7.36567H37.7446V18H43.4893V0H38.6198C37.3182 0 36.1738 0.738806 35.6352 1.90298Z" fill="#E1C7A5"/>
<path d="M14.0926 2.37313L11.6914 10.6567H11.2875L8.88639 2.37313C8.48247 0.962687 7.20337 0 5.74474 0H0V18H5.74474V7.36567H6.14867L9.42496 18H13.5316L16.8079 7.36567H17.2118V18H22.9565V0H17.2342C15.7756 0 14.4965 0.962687 14.0926 2.37313Z" fill="#E1C7A5"/>
<path d="M45.9355 8.19403V18.0224H51.6578V12.2687H57.829C60.4994 12.2687 62.7883 10.5672 63.6186 8.17165L45.9355 8.19403Z" fill="#E1C7A5"/>
<path d="M57.8507 0H45.127C45.8899 4.18657 49.5702 7.36567 53.9909 7.36567H63.8647C63.9544 6.96269 63.9769 6.5597 63.9769 6.13433C63.9993 2.75373 61.2392 0 57.8507 0Z" fill="#E1C7A5"/>
</g>
<defs>
<clipPath id="clip0_334_1557">
<rect width="64" height="18" fill="white"/>
</clipPath>
</defs>
</svg>
