<svg width="50" height="39" viewBox="0 0 50 39" fill="none" xmlns="http://www.w3.org/2000/svg">
<g clip-path="url(#clip0_334_1562)">
<path d="M49.0156 38.4711V38.5714H49.1088C49.1264 38.5717 49.1436 38.5673 49.1588 38.5586C49.1649 38.5543 49.1698 38.5485 49.1731 38.5418C49.1764 38.5351 49.1779 38.5277 49.1776 38.5203C49.1779 38.513 49.1764 38.5057 49.1731 38.4991C49.1698 38.4926 49.1649 38.487 49.1588 38.4829C49.1438 38.4738 49.1264 38.4694 49.1088 38.4701H49.0156V38.4711ZM49.1098 38.4002C49.1498 38.3977 49.1894 38.4093 49.2218 38.4328C49.2349 38.4435 49.2452 38.4571 49.252 38.4725C49.2588 38.4879 49.2619 38.5047 49.2611 38.5215C49.2617 38.536 49.2592 38.5505 49.2538 38.5639C49.2483 38.5774 49.2401 38.5895 49.2296 38.5995C49.2046 38.6213 49.1732 38.6344 49.1401 38.6368L49.2651 38.7797H49.1688L49.0538 38.6378H49.0166V38.7797H48.9361V38.4005H49.1111L49.1098 38.4002ZM49.0848 38.9105C49.1271 38.9109 49.1689 38.9024 49.2076 38.8855C49.2449 38.8694 49.2788 38.8463 49.3076 38.8175C49.3364 38.7888 49.3594 38.7548 49.3753 38.7173C49.4081 38.6378 49.4081 38.5486 49.3753 38.4691C49.3592 38.4318 49.3362 38.3978 49.3076 38.3689C49.2788 38.3401 49.2449 38.3171 49.2076 38.301C49.1687 38.285 49.1269 38.2769 49.0848 38.2774C49.042 38.277 48.9996 38.285 48.9598 38.301C48.9217 38.3168 48.887 38.3398 48.8576 38.3689C48.8134 38.4144 48.7835 38.4719 48.7716 38.5343C48.7597 38.5967 48.7664 38.6612 48.7908 38.7198C48.8061 38.7574 48.8288 38.7915 48.8576 38.82C48.887 38.8491 48.9217 38.8721 48.9598 38.888C48.9993 38.9049 49.0419 38.9134 49.0848 38.913M49.0848 38.1862C49.1947 38.1861 49.3002 38.2293 49.3786 38.3065C49.4164 38.3435 49.4465 38.3878 49.4671 38.4366C49.4885 38.4867 49.4995 38.5406 49.4995 38.5951C49.4995 38.6496 49.4885 38.7035 49.4671 38.7536C49.446 38.8022 49.416 38.8463 49.3786 38.8837C49.3402 38.9206 49.2956 38.9503 49.2468 38.9714C49.1956 38.9932 49.1405 39.0043 49.0848 39.004C49.0285 39.0044 48.9727 38.9933 48.9208 38.9714C48.8715 38.9508 48.8265 38.921 48.7881 38.8837C48.7507 38.8449 48.7211 38.7993 48.7008 38.7494C48.6795 38.6992 48.6685 38.6453 48.6685 38.5908C48.6685 38.5363 48.6795 38.4824 48.7008 38.4323C48.7215 38.3835 48.7516 38.3393 48.7893 38.3022C48.8272 38.2643 48.8724 38.2344 48.9221 38.2145C48.974 38.1926 49.0298 38.1815 49.0861 38.1819M10.8048 36.7217C10.8048 35.9986 11.2773 35.4045 12.0496 35.4045C12.7876 35.4045 13.2856 35.973 13.2856 36.7217C13.2856 37.4703 12.7876 38.0388 12.0496 38.0388C11.2773 38.0388 10.8048 37.4448 10.8048 36.7217ZM14.1268 36.7217V34.6639H13.2346V35.1652C12.9516 34.7947 12.5223 34.5624 11.9386 34.5624C10.7886 34.5624 9.88609 35.4667 9.88609 36.7227C9.88609 37.9786 10.7881 38.8829 11.9386 38.8829C12.5221 38.8829 12.9516 38.6504 13.2346 38.2802V38.7797H14.1258V36.7217H14.1268ZM44.2748 36.7217C44.2748 35.9986 44.7473 35.4045 45.5198 35.4045C46.2586 35.4045 46.7558 35.973 46.7558 36.7217C46.7558 37.4703 46.2586 38.0388 45.5198 38.0388C44.7476 38.0388 44.2748 37.4448 44.2748 36.7217ZM47.5978 36.7217V33.0121H46.7048V35.1652C46.4218 34.7947 45.9926 34.5624 45.4088 34.5624C44.2588 34.5624 43.3563 35.4667 43.3563 36.7227C43.3563 37.9786 44.2583 38.8829 45.4088 38.8829C45.9926 38.8829 46.4218 38.6504 46.7048 38.2802V38.7797H47.5978V36.7217ZM25.2008 35.3622C25.7758 35.3622 26.1451 35.7236 26.2393 36.36H24.1103C24.2056 35.766 24.5653 35.3622 25.2011 35.3622M25.2188 34.5601C24.0163 34.5601 23.1751 35.4374 23.1751 36.7204C23.1751 38.0285 24.0501 38.8807 25.2786 38.8807C25.8966 38.8807 26.4626 38.726 26.9606 38.3042L26.5233 37.6413C26.1793 37.917 25.7413 38.0716 25.3296 38.0716C24.7546 38.0716 24.2311 37.8047 24.1023 37.064H27.1491C27.1578 36.9528 27.1668 36.8405 27.1668 36.7202C27.1578 35.4376 26.3668 34.5599 25.2183 34.5599M35.9908 36.7202C35.9908 35.9971 36.4633 35.403 37.2356 35.403C37.9736 35.403 38.4716 35.9715 38.4716 36.7202C38.4716 37.4688 37.9736 38.0373 37.2356 38.0373C36.4633 38.0373 35.9906 37.4433 35.9906 36.7202M39.3126 36.7202V34.6639H38.4208V35.1652C38.1368 34.7947 37.7086 34.5624 37.1248 34.5624C35.9748 34.5624 35.0723 35.4667 35.0723 36.7227C35.0723 37.9786 35.9743 38.8829 37.1248 38.8829C37.7086 38.8829 38.1368 38.6504 38.4208 38.2802V38.7797H39.3128V36.7217L39.3126 36.7202ZM30.9521 36.7202C30.9521 37.9681 31.8186 38.8804 33.1411 38.8804C33.7591 38.8804 34.1708 38.7426 34.6161 38.3899L34.1876 37.6668C33.8526 37.9082 33.5008 38.0373 33.1126 38.0373C32.4003 38.0285 31.8766 37.5122 31.8766 36.7202C31.8766 35.9281 32.4003 35.412 33.1126 35.403C33.4998 35.403 33.8516 35.5321 34.1876 35.7735L34.6161 35.0504C34.1701 34.6977 33.7583 34.5599 33.1411 34.5599C31.8186 34.5599 30.9521 35.472 30.9521 36.7202ZM42.4546 34.5599C41.9398 34.5599 41.6046 34.8012 41.3728 35.1627V34.6639H40.4886V38.7774H41.3818V36.4715C41.3818 35.7908 41.6736 35.4126 42.2568 35.4126C42.4478 35.4098 42.6375 35.445 42.8148 35.5161L43.0898 34.6729C42.8923 34.595 42.6348 34.5606 42.4541 34.5606M18.5381 34.991C18.1088 34.7072 17.5173 34.5606 16.8648 34.5606C15.8253 34.5606 15.1561 35.0601 15.1561 35.8775C15.1561 36.5482 15.6543 36.962 16.5718 37.0911L16.9933 37.1513C17.4826 37.2202 17.7136 37.3493 17.7136 37.5816C17.7136 37.8997 17.3886 38.0811 16.7783 38.0811C16.1603 38.0811 15.7143 37.8831 15.4136 37.6508L14.9943 38.3483C15.4836 38.7098 16.1016 38.8822 16.7708 38.8822C17.9558 38.8822 18.6426 38.3228 18.6426 37.5395C18.6426 36.8164 18.1021 36.4382 17.2091 36.3091L16.7886 36.2479C16.4023 36.1978 16.0928 36.1199 16.0928 35.8442C16.0928 35.5434 16.3846 35.3624 16.8741 35.3624C17.3978 35.3624 17.9048 35.5604 18.1533 35.7151L18.5396 34.992L18.5381 34.991ZM30.0508 34.5614C29.5361 34.5614 29.2008 34.8027 28.9701 35.1642V34.6639H28.0858V38.7774H28.9781V36.4715C28.9781 35.7908 29.2698 35.4126 29.8531 35.4126C30.0441 35.4098 30.2337 35.445 30.4111 35.5161L30.6861 34.6729C30.4886 34.595 30.2311 34.5606 30.0503 34.5606M22.4368 34.6639H20.9778V33.4159H20.0758V34.6639H19.2436V35.4815H20.0758V37.358C20.0758 38.3125 20.4453 38.8809 21.5008 38.8809C21.8881 38.8809 22.3341 38.7606 22.6171 38.5629L22.3593 37.7969C22.0931 37.9516 21.8013 38.0295 21.5693 38.0295C21.1233 38.0295 20.9778 37.7538 20.9778 37.341V35.4822H22.4368V34.6639ZM9.09709 38.7784V36.1968C9.09709 35.2246 8.47909 34.5704 7.48284 34.5616C6.95909 34.5528 6.41884 34.7163 6.04059 35.2935C5.75759 34.8373 5.31159 34.5616 4.68459 34.5616C4.24634 34.5616 3.81809 34.6907 3.48284 35.1724V34.6639H2.58984V38.7774H3.48984V36.4966C3.48984 35.7825 3.88484 35.403 4.49484 35.403C5.08734 35.403 5.38709 35.7903 5.38709 36.4876V38.7769H6.28909V36.4961C6.28909 35.782 6.70084 35.4025 7.29309 35.4025C7.90234 35.4025 8.19309 35.7898 8.19309 36.4871V38.7764L9.09709 38.7784Z" fill="#E1C7A5"/>
<path d="M31.7637 27.6747H18.2422V3.31224H31.7639L31.7637 27.6747Z" fill="#E1C7A5"/>
<path d="M19.1 15.4938C19.1 10.5519 21.408 6.14962 25.002 3.31259C22.2815 1.16195 18.9167 -0.00528314 15.4523 -0.000150995C6.918 -0.000150995 0 6.93664 0 15.4938C0 24.051 6.918 30.9878 15.4523 30.9878C18.9168 30.993 22.2817 29.8258 25.0023 27.6751C21.4085 24.8385 19.1 20.436 19.1 15.4938Z" fill="#E1C7A5"/>
<path d="M50.0055 15.494C50.0055 24.0512 43.0875 30.988 34.5532 30.988C31.0883 30.9931 27.723 29.8258 25.002 27.6752C28.597 24.8382 30.905 20.4362 30.905 15.494C30.905 10.5518 28.597 6.14977 25.002 3.31275C27.7229 1.16216 31.0881 -0.00504059 34.553 1.00529e-06C43.0872 1.00529e-06 50.0052 6.93679 50.0052 15.494" fill="#E1C7A5"/>
</g>
<defs>
<clipPath id="clip0_334_1562">
<rect width="50" height="39" fill="white"/>
</clipPath>
</defs>
</svg>
