<svg width="64" height="19" viewBox="0 0 64 19" fill="none" xmlns="http://www.w3.org/2000/svg">
<g clip-path="url(#clip0_334_1567)">
<path d="M18.9883 0.375875L13.6249 12.8085L11.4525 2.23871C11.3652 1.71917 11.0776 1.24553 10.6418 0.903751C10.206 0.561969 9.65093 0.374687 9.07734 0.375875H0.306641L0.189453 0.904583C1.94609 1.22498 3.6534 1.74097 5.2734 2.44109C6.03058 2.82522 6.24691 3.15154 6.4948 4.05197L10.6097 18.6283H16.0587L24.4103 0.375875H18.9883Z" fill="#E1C7A5"/>
<path d="M26.6191 0.37587L22.3555 18.6406H27.516L31.7662 0.37587H26.6191Z" fill="#E1C7A5"/>
<path d="M38.5349 5.43565C38.5349 4.78304 39.2335 4.08501 40.7208 3.89914C42.4655 3.75381 44.2209 4.03904 45.8047 4.72523L46.7061 0.854987C45.1651 0.318564 43.532 0.0388045 41.8836 0.0289001C36.7861 0.0289001 33.203 2.50717 33.167 6.07586C33.1399 8.70282 35.7315 10.1691 37.674 11.0324C39.6166 11.8956 40.3782 12.4987 40.3467 13.3041C40.3467 14.5433 38.7422 15.0637 37.2639 15.0843C35.4192 15.1221 33.5946 14.7269 31.9636 13.9361L31.0352 17.9385C32.8628 18.5887 34.8076 18.9179 36.7681 18.9091C42.1766 18.9091 45.7191 16.4556 45.7416 12.6598C45.7416 7.83543 38.4672 7.57109 38.5303 5.41914" fill="#E1C7A5"/>
<path d="M53.4632 12.1724L56.2035 5.31174L57.7449 12.1724H53.4632ZM55.4193 0.375866C54.9488 0.372335 54.488 0.498425 54.0966 0.737783C53.7052 0.977141 53.4013 1.31873 53.2243 1.71826L45.4902 18.653H50.8987L51.9759 15.9228H58.5742L59.1962 18.653H63.9781L59.8227 0.375866H55.4193Z" fill="#E1C7A5"/>
</g>
<defs>
<clipPath id="clip0_334_1567">
<rect width="64" height="19" fill="white"/>
</clipPath>
</defs>
</svg>
