<svg width="26" height="28" viewBox="0 0 26 28" fill="none" xmlns="http://www.w3.org/2000/svg">
<g clip-path="url(#clip0_352_1290)">
<path d="M23.8169 15.2584C23.1409 20.7817 19.0589 21.1347 18.3049 21.3869C17.9929 21.4878 15.0029 22.2192 11.2849 21.9922L7.22885 26.3554V21.3365H7.20285C1.76885 19.8233 1.95085 14.1991 2.00285 11.2483C2.05485 8.29753 2.62685 5.87636 4.29085 4.23703C7.28085 1.56366 13.4169 1.96719 13.4169 1.96719C18.6169 1.99241 21.0869 3.53086 21.6589 4.06049C23.5569 5.6746 24.5449 9.55855 23.8169 15.2584ZM23.0629 2.64814C22.3869 2.04285 19.6309 0.0504372 13.4949 0.0252168C13.4949 0.0252168 6.26685 -0.403531 2.73085 2.79947C0.780855 4.74144 0.0788546 7.59135 0.0268546 11.1222C-0.0511454 14.6531 -0.129145 21.2861 6.29285 23.0767V25.8257C6.29285 25.8257 6.24085 26.9354 6.99485 27.1624C7.87885 27.4399 8.39885 26.5824 9.25685 25.6744C9.72485 25.17 10.3749 24.4386 10.8429 23.8838C15.2369 24.2621 18.6169 23.4046 19.0069 23.2785C19.8909 23.0011 24.9089 22.3453 25.7409 15.7376C26.5729 8.92804 25.3249 4.59012 23.0629 2.64814Z" fill="black"/>
<path d="M19.1365 16.0906C19.1365 16.0906 18.3045 15.4097 17.9145 15.107C17.5245 14.8296 16.9265 14.4513 16.5885 14.2748C15.9905 13.9469 15.3665 14.1487 15.1065 14.4765L14.5865 15.1323C14.3265 15.4601 13.8845 15.4097 13.7805 15.3845C13.0005 15.1827 12.1685 14.7287 11.3105 13.9217C10.4525 13.1146 9.93254 12.2571 9.75054 11.3996L9.72454 11.3492C9.67254 10.9961 9.72454 10.8196 9.88054 10.5674L9.90653 10.5421C10.2705 10.2143 10.9205 9.83597 11.0245 9.45767C11.2845 8.80193 10.1405 7.44003 9.98454 7.21305C9.98454 7.21305 9.15253 6.15379 8.86653 5.95202C8.55453 5.69982 8.06054 5.5485 7.56654 5.85114H7.54054C6.11054 6.7843 5.61654 7.31393 5.74654 8.12098L5.82454 8.44885C6.55254 10.643 7.93054 13.0138 10.0105 15.107C12.0645 17.1499 14.3005 18.3857 16.4845 19.2432C17.0565 19.4197 17.6545 19.2684 18.2525 18.764C18.7205 18.3353 19.0845 17.8813 19.3445 17.4021C19.6305 16.8977 19.5265 16.4185 19.1365 16.0906Z" fill="black"/>
<path d="M15.7311 11.2483C15.6531 11.2483 15.5751 11.1727 15.5751 11.097C15.5491 10.5169 15.3931 10.0882 15.1071 9.78553C14.8211 9.48289 14.4051 9.33156 13.8591 9.30634C13.7811 9.30634 13.7031 9.23068 13.7031 9.1298C13.7031 9.02892 13.7811 8.97848 13.8851 8.97848C14.5351 9.0037 15.0291 9.20546 15.3671 9.55855C15.7051 9.91164 15.8871 10.416 15.9391 11.0718C15.9131 11.1727 15.8351 11.2483 15.7311 11.2483Z" fill="black"/>
<path d="M17.3436 11.8032C17.2396 11.8032 17.1876 11.7275 17.1876 11.6266C17.2136 10.5421 16.8756 9.60899 16.1996 8.8776C15.8616 8.49929 15.4456 8.22186 14.9776 8.0201C14.5096 7.81834 13.9636 7.69223 13.3396 7.64179C13.2616 7.64179 13.1836 7.56613 13.1836 7.46525C13.1836 7.36437 13.2616 7.31393 13.3656 7.31393C14.6656 7.41481 15.7056 7.86878 16.4336 8.65061C17.1616 9.45767 17.5256 10.4413 17.4996 11.6266C17.5256 11.7275 17.4476 11.8032 17.3436 11.8032Z" fill="black"/>
<path d="M19.0061 12.4337C18.9281 12.4337 18.8501 12.358 18.8501 12.2824C18.8501 11.324 18.6941 10.4413 18.4081 9.68465C18.1221 8.92803 17.6801 8.2723 17.1081 7.71745C16.5361 7.1626 15.8861 6.73385 15.1841 6.45643C14.4821 6.179 13.6761 6.02768 12.8181 6.02768C12.7401 6.02768 12.6621 5.95202 12.6621 5.87636C12.6621 5.77548 12.7401 5.72504 12.8181 5.72504C14.6121 5.75026 16.1201 6.33033 17.3421 7.51569C17.9401 8.09576 18.4081 8.80193 18.7201 9.60899C19.0321 10.416 19.1881 11.324 19.1881 12.3328C19.1881 12.358 19.1101 12.4337 19.0061 12.4337Z" fill="black"/>
</g>
<defs>
<clipPath id="clip0_352_1290">
<rect width="26" height="27.2381" fill="white"/>
</clipPath>
</defs>
</svg>
