<svg width="150" height="79" viewBox="0 0 150 79" fill="none" xmlns="http://www.w3.org/2000/svg">
<path d="M62.2363 1.14109V2.28217H72.3398H82.4433V1.14109V1.26362e-05H72.3398H62.2363V1.14109Z" fill="black"/>
<path d="M70.7878 9.56005V14.1212L70.5122 14.2244C69.0015 14.7871 67.6491 15.5781 66.4012 16.6347C65.0456 17.7758 63.9751 19.2139 63.2054 20.9145C62.9046 21.5836 62.5847 22.6684 62.4136 23.6031C62.2109 24.7067 62.1856 26.0697 62.3503 27.167C62.4358 27.7391 62.5847 28.455 62.6829 28.777C62.7367 28.949 62.8 29.1522 62.8222 29.2303C62.9742 29.7493 63.3796 30.6809 63.7217 31.2968C64.8714 33.3538 66.7116 35.0983 68.8241 36.1268C70.0973 36.7427 71.2882 37.0991 72.7198 37.2835C73.2456 37.3523 74.4966 37.3773 75.035 37.3304C77.1571 37.1491 79.1493 36.4676 80.7962 35.3671C81.341 35.0045 81.569 34.8232 82.041 34.3855L82.4432 34.0103V32.6442V31.2811L82.1201 31.5969C81.1161 32.5754 79.9443 33.3851 78.6425 33.9916C78.0312 34.2761 78.0407 34.273 77.5118 34.4605C76.3811 34.8669 75.4785 35.0389 74.3351 35.067C73.3437 35.0889 72.7673 35.0264 71.7538 34.7763C70.8733 34.5574 69.8598 34.1323 69.0902 33.6602C67.9658 32.9756 66.8699 31.9251 66.1605 30.8654C65.3433 29.6399 64.8777 28.4175 64.637 26.8544C64.5357 26.201 64.5357 24.9474 64.637 24.2971C64.9126 22.5496 65.4954 21.1615 66.5247 19.8047C66.9491 19.2451 67.7568 18.4511 68.406 17.9602C68.7259 17.7195 69.5241 17.1943 69.5716 17.1943C69.5842 17.1943 69.6761 17.1443 69.7806 17.0818C70.0023 16.9473 70.7276 16.6316 70.7656 16.6535C70.7783 16.6597 70.7878 18.9794 70.7878 21.8086V26.9482H74.1134C76.9544 26.9482 77.4897 26.9419 77.7937 26.8982C79.0733 26.7231 80.0488 26.2729 80.8374 25.4945C81.5469 24.7942 81.9935 23.9126 82.2247 22.7528C82.3577 22.0838 82.4115 21.5804 82.4337 20.8364C82.459 19.9141 82.3957 19.192 82.2183 18.351C82.0568 17.6007 81.8034 17.0161 81.3885 16.4628C80.8469 15.7406 80.0868 15.231 79.0638 14.909C78.9371 14.8684 78.8326 14.8278 78.8326 14.8153C78.8326 14.8027 78.9086 14.7746 79.0004 14.7559C79.7035 14.5902 80.2546 14.2994 80.6632 13.8805C81.398 13.1302 81.7559 12.0861 81.8288 10.4885C81.8668 9.67572 81.7591 8.90979 81.5089 8.17513C81.322 7.62491 81.2175 7.40295 80.9641 7.02467C80.3528 6.10556 79.3868 5.50532 78.0407 5.20833C77.1888 5.02076 77.2173 5.02388 73.8695 5.01138L70.7878 4.99887V9.56005ZM75.8712 7.31541C77.6765 7.42796 78.2751 7.66868 78.7787 8.48775C79.0384 8.90667 79.1208 9.32871 79.1239 10.1916C79.1239 10.6667 79.1081 10.8793 79.0574 11.1607C78.8484 12.3393 78.3416 13.0114 77.4548 13.2865C76.8277 13.4804 76.4318 13.521 75.0636 13.521H73.9075L73.898 10.401L73.8917 7.28415H74.6265C75.0319 7.28415 75.5925 7.29978 75.8712 7.31541ZM74.9527 16.2752C76.0992 16.4284 76.9956 16.7066 77.7399 17.138C78.6679 17.6758 79.1461 18.4792 79.3932 19.9141C79.4818 20.43 79.4723 21.6398 79.3773 22.1713C79.2126 23.0716 78.8769 23.7938 78.4778 24.1096C78.1674 24.3565 77.8032 24.5253 77.3788 24.6223C76.9259 24.7286 76.4033 24.7598 75.1364 24.7598H73.8917V20.4737V16.1845L74.2496 16.2064C74.4428 16.2189 74.7627 16.2502 74.9527 16.2752Z" fill="black"/>
<path d="M86.5541 51.1484C86.1994 51.189 85.7338 51.3141 85.4709 51.4391C84.8121 51.7517 84.3307 52.3488 84.1058 53.1304C83.8651 53.9588 83.8271 54.656 83.843 57.7572C83.8588 60.3895 83.8683 60.5521 84.0583 61.2899C84.223 61.9433 84.4732 62.3997 84.8723 62.7936C85.4139 63.3188 86.1297 63.5564 87.1781 63.5564C88.1694 63.5533 88.8092 63.3563 89.3033 62.8936C89.9937 62.2434 90.2503 61.4243 90.2883 59.7174L90.3073 58.8983H89.4838H88.6572L88.6413 59.8893C88.6223 60.9866 88.5906 61.2399 88.4355 61.5681C88.3056 61.8401 88.1536 61.9995 87.916 62.1058C87.7355 62.184 87.6753 62.1934 87.3016 62.2059C87.064 62.2121 86.817 62.2027 86.7156 62.184C86.2976 62.0964 86.022 61.887 85.8478 61.515C85.6039 60.9991 85.5786 60.624 85.5786 57.3539C85.5786 54.1495 85.6071 53.6525 85.813 53.196C86.0252 52.7334 86.3387 52.5208 86.9088 52.4583C87.4789 52.3957 88.0015 52.5145 88.2486 52.7646C88.5495 53.0741 88.6192 53.3993 88.6413 54.6529L88.6572 55.5845H89.4838H90.3073L90.2883 54.7623C90.2756 54.1308 90.2566 53.8588 90.2059 53.5712C89.9336 52.0487 89.1766 51.3109 87.7165 51.1452C87.3839 51.1077 86.8993 51.1108 86.5541 51.1484Z" fill="black"/>
<path d="M94.4945 51.1452C93.595 51.2484 92.8888 51.6048 92.4453 52.18C92.1286 52.5896 91.9513 53.0241 91.8119 53.7181C91.7422 54.062 91.7422 54.1152 91.7295 57.1007C91.72 60.2457 91.7264 60.4458 91.8531 61.0554C92.0209 61.862 92.287 62.3747 92.7811 62.828C93.3163 63.3219 94.0575 63.5564 95.0868 63.5564C97.0283 63.5564 97.9975 62.7436 98.3807 60.7897C98.4472 60.4583 98.4472 60.3489 98.4599 57.5384C98.4757 54.4309 98.4662 54.2027 98.3206 53.5524C98.1717 52.8772 97.931 52.377 97.5731 52.0018C97.0125 51.4078 96.341 51.1577 95.2388 51.1296C94.9696 51.1234 94.6339 51.1296 94.4945 51.1452ZM95.6506 52.4958C95.8723 52.5489 96.1288 52.6896 96.2745 52.8397C96.5057 53.0741 96.6261 53.3899 96.6926 53.9276C96.7401 54.2871 96.7401 60.352 96.6926 60.7115C96.5849 61.5931 96.2524 62.0464 95.6252 62.1777C95.3814 62.2277 94.7511 62.2215 94.5325 62.1652C94.124 62.0621 93.8548 61.8432 93.6837 61.4837C93.4494 60.9835 93.4272 60.5708 93.4399 56.9757C93.4525 54.3059 93.4589 54.0089 93.5095 53.74C93.5412 53.5774 93.595 53.368 93.6299 53.2805C93.8548 52.6771 94.3964 52.3989 95.2388 52.4489C95.3877 52.4551 95.5714 52.477 95.6506 52.4958Z" fill="black"/>
<path d="M110.72 51.1484C109.643 51.2797 108.921 51.733 108.496 52.552C108.325 52.8803 108.243 53.1367 108.145 53.6619C108.015 54.3684 107.996 54.8936 108.009 57.6791C108.021 60.1269 108.028 60.2801 108.091 60.674C108.23 61.5306 108.452 62.1027 108.823 62.5654C109.409 63.2907 110.242 63.5908 111.543 63.547C112.443 63.5158 112.975 63.3407 113.437 62.9218C114.166 62.2621 114.464 61.243 114.464 59.3891V58.8983H113.64H112.817V59.6424C112.817 61.2961 112.652 61.8463 112.082 62.1058C111.889 62.1934 111.87 62.1965 111.36 62.1965C110.891 62.1965 110.818 62.1871 110.66 62.1246C110.178 61.9339 109.963 61.6213 109.82 60.8991C109.773 60.6646 109.763 60.2832 109.754 57.6478C109.735 53.9745 109.754 53.6431 110.014 53.1241C110.219 52.7115 110.523 52.5208 111.075 52.4583C111.673 52.3926 112.193 52.5177 112.436 52.7896C112.715 53.1054 112.782 53.4399 112.807 54.6685L112.826 55.5845H113.643H114.464V55.0749C114.464 53.8776 114.318 53.0397 114.004 52.427C113.824 52.0737 113.45 51.6955 113.067 51.4766C112.877 51.3703 112.522 51.2515 112.202 51.189C111.892 51.1296 111.056 51.1077 110.72 51.1484Z" fill="black"/>
<path d="M136.492 51.1484C135.405 51.2765 134.69 51.733 134.265 52.5677C134.031 53.0335 133.872 53.8025 133.815 54.7404C133.781 55.3875 133.777 59.4141 133.815 60.0269C133.879 61.0335 134.107 61.8839 134.465 62.4153C135.003 63.2125 135.757 63.5658 136.935 63.5689C137.461 63.5689 137.708 63.5251 138.044 63.3657C138.424 63.1875 138.804 62.7905 139.038 62.3278C139.105 62.1934 139.168 62.0933 139.178 62.109C139.184 62.1215 139.225 62.4247 139.263 62.7811L139.339 63.4314H139.887H140.435V60.4145V57.3977H138.867H137.299V57.9917V58.5857H138.075H138.851V59.3891C138.848 60.7678 138.712 61.3993 138.316 61.8151C138.047 62.0996 137.727 62.2121 137.173 62.2121C136.441 62.2121 136.042 61.9995 135.792 61.4837C135.542 60.9616 135.526 60.7053 135.526 57.3071C135.526 53.9245 135.545 53.6243 135.77 53.1523C135.887 52.9022 136.159 52.6427 136.39 52.5583C136.644 52.4645 137.074 52.4207 137.417 52.4551C138.136 52.5302 138.471 52.8178 138.614 53.4899C138.668 53.7431 138.725 54.4278 138.725 54.8405V55.1156H139.539H140.349L140.327 54.5466C140.277 53.1961 140.026 52.4207 139.469 51.8799C139.098 51.5204 138.633 51.3016 138.009 51.1921C137.667 51.1296 136.837 51.1077 136.492 51.1484Z" fill="black"/>
<path d="M0.975533 51.2265C0.959697 51.239 0.950195 53.9901 0.950195 57.3414V63.4313H2.73335C3.83554 63.4313 4.62101 63.4188 4.79838 63.3969C5.78339 63.2781 6.46118 62.8686 6.93626 62.1089C7.55704 61.1148 7.60455 59.1203 7.02811 58.0542C6.73989 57.5196 6.25214 57.1351 5.60919 56.9381L5.34314 56.8569L5.56802 56.8037C5.91641 56.7224 6.19196 56.5724 6.43267 56.3379C6.86658 55.9065 7.05028 55.3719 7.08512 54.4434C7.12313 53.3367 6.87608 52.5427 6.32182 52.0049C5.93542 51.6298 5.4825 51.4235 4.76037 51.2984C4.42148 51.239 4.23461 51.2296 2.69217 51.2171C1.76101 51.2077 0.988202 51.2109 0.975533 51.2265ZM4.00657 52.5208C5.08343 52.6239 5.41916 52.8709 5.56168 53.6775C5.62503 54.0464 5.60919 54.7904 5.52684 55.1468C5.41282 55.6345 5.18161 55.9628 4.83639 56.1284C4.54183 56.2691 4.25678 56.3035 3.43647 56.3035H2.69217V54.3965V52.4895H3.17676C3.43964 52.4895 3.81654 52.5051 4.00657 52.5208ZM4.56084 57.7291C4.7097 57.7822 4.91557 57.8791 5.01692 57.9448C5.34631 58.1605 5.60602 58.5982 5.71371 59.1234C5.87524 59.8956 5.76755 61.021 5.48567 61.5337C5.37165 61.7432 5.1151 61.9683 4.8934 62.0495C4.564 62.1746 4.22828 62.2121 3.4333 62.2121H2.69217V59.9112V57.6103L3.49348 57.6228C4.28529 57.6353 4.29479 57.6353 4.56084 57.7291Z" fill="black"/>
<path d="M8.98555 51.2296C8.97288 51.239 8.96338 53.9901 8.96338 57.3414V63.4313H9.83437H10.7054V60.5708V57.7103L11.3768 57.7166L12.0514 57.726L12.8559 60.5771L13.6635 63.4313H14.4902H15.32L15.0096 62.3434C14.8386 61.7463 14.4427 60.3739 14.1323 59.2891L13.5685 57.3227L13.8472 57.1851C14.5947 56.8256 14.9875 56.0847 15.073 54.8748C15.1616 53.6275 14.8829 52.6302 14.2843 52.0518C13.7554 51.5423 13.0428 51.3078 11.8297 51.239C11.2184 51.2046 9.01722 51.1952 8.98555 51.2296ZM12.194 52.502C12.6975 52.6114 13.0143 52.8178 13.1853 53.1523C13.3627 53.5024 13.407 53.7556 13.4102 54.4434C13.4102 54.928 13.4007 55.1155 13.3595 55.275C13.1885 55.9346 12.8274 56.2816 12.1591 56.4161C12.0293 56.4411 11.6492 56.4692 11.3166 56.4817L10.7054 56.5005V54.459V52.4176L11.3483 52.4364C11.6999 52.4489 12.0799 52.477 12.194 52.502Z" fill="black"/>
<path d="M18.8449 51.2203C18.8449 51.2453 16.2478 63.3188 16.2288 63.3751C16.2129 63.4282 16.2636 63.4313 17.0206 63.4313H17.8314L17.8472 63.3626C17.8567 63.3219 17.9866 62.656 18.1323 61.8838C18.2811 61.1085 18.411 60.452 18.4205 60.4208C18.4363 60.3707 18.525 60.3676 19.6969 60.3676H20.9606L20.9764 60.452C20.9859 60.5021 21.1095 61.1898 21.2552 61.9839L21.518 63.4313H22.3352C22.7849 63.4313 23.1523 63.4282 23.1492 63.422C23.1492 63.4188 22.5537 60.6709 21.8284 57.3195L20.5077 51.2234L19.6747 51.214C19.2186 51.2109 18.8449 51.214 18.8449 51.2203ZM20.2068 56.3817C20.4855 57.8604 20.7136 59.0859 20.7136 59.1077C20.7136 59.139 20.5014 59.1484 19.681 59.1484H18.6485L18.6644 59.0765C18.6865 58.9983 19.6684 53.7119 19.6684 53.6837C19.6684 53.5618 19.7761 54.1026 20.2068 56.3817Z" fill="black"/>
<path d="M24.4194 57.3195V63.4313H25.1479H25.8764V59.2641V55.0999L27.6563 59.2641L29.4363 63.4313H29.9843H30.5322V57.3195V51.2077H29.8196H29.1069L29.1006 55.2625L29.0911 59.3203L27.3333 55.2719L25.5755 51.2234L24.999 51.214L24.4194 51.2077V57.3195Z" fill="black"/>
<path d="M32.4865 51.2296C32.4739 51.239 32.4644 53.9901 32.4644 57.3414V63.4376L34.2475 63.422C35.8881 63.4095 36.0497 63.4032 36.3284 63.3438C37.6935 63.0562 38.4156 62.2903 38.7006 60.8303C38.8242 60.2051 38.8368 59.7955 38.821 56.9131C38.8083 54.2808 38.8051 54.1464 38.7418 53.8182C38.5708 52.9366 38.2604 52.3176 37.8043 51.958C37.2247 51.4985 36.5944 51.2984 35.5461 51.239C34.9475 51.2046 32.5182 51.1952 32.4865 51.2296ZM35.7266 52.5208C36.4076 52.6271 36.7908 52.9428 36.9428 53.5337C37.0663 54.0026 37.0727 54.1746 37.0727 57.2101C37.0727 60.252 37.06 60.6396 36.9397 61.1023C36.8288 61.5431 36.5849 61.8651 36.2524 62.0245C35.9515 62.1652 35.5999 62.2121 34.8524 62.2121H34.2063V57.3508V52.4895H34.8651C35.2262 52.4895 35.6126 52.5051 35.7266 52.5208Z" fill="black"/>
<path d="M43.2959 51.8486V52.4895H44.3411H45.3863V57.9604V63.4313H46.2414H47.0966V57.9604V52.4895H48.1101H49.1236V51.8486V51.2077H46.2098H43.2959V51.8486Z" fill="black"/>
<path d="M50.3271 57.3195V63.4313H51.1823H52.0375V60.5708V57.7103L52.7216 57.7166L53.4057 57.726L54.2102 60.5708C54.6536 62.1339 55.0146 63.4188 55.0146 63.422C55.0146 63.4282 55.3852 63.4313 55.8381 63.4313C56.291 63.4313 56.6616 63.4188 56.6616 63.4063C56.6616 63.3844 54.9956 57.5571 54.9355 57.3633C54.9228 57.3258 54.9608 57.2945 55.0938 57.2414C55.9838 56.885 56.4399 55.9409 56.4399 54.459C56.4399 53.7337 56.3481 53.2304 56.1232 52.7521C55.9775 52.4395 55.8856 52.3019 55.6703 52.0862C55.1667 51.5735 54.3875 51.3047 53.2093 51.239C52.9053 51.2234 52.1325 51.2077 51.4927 51.2077H50.3271V57.3195ZM53.2062 52.4582C54.1183 52.5395 54.5111 52.8396 54.7043 53.6087C54.7644 53.8432 54.7739 53.9651 54.7708 54.4747C54.7708 54.9749 54.7613 55.1062 54.7043 55.3062C54.5681 55.8096 54.3432 56.0972 53.96 56.2723C53.6401 56.4192 53.3043 56.4692 52.6392 56.4723L52.0533 56.4755L52.0438 54.4903C52.0406 53.3992 52.0438 52.4864 52.0533 52.4645C52.0723 52.4176 52.6836 52.4145 53.2062 52.4582Z" fill="black"/>
<path d="M58.2456 57.3195V63.4313H60.6527H63.0598V62.8217V62.2121H61.5079H59.9559V59.9768V57.7416H61.207H62.458V57.132V56.5224H61.207H59.9559V54.5059V52.4895H61.492H63.0281V51.8486V51.2077H60.6369H58.2456V57.3195Z" fill="black"/>
<path d="M64.4753 51.2265C64.4626 51.239 64.4531 53.9901 64.4531 57.3414V63.4313H65.1974H65.9417L65.9481 59.2891L65.9576 55.1468L67.4747 58.7013C68.3108 60.6584 69.1058 62.5216 69.2451 62.8436L69.4954 63.4313H70.0465H70.5976L70.5912 57.3258L70.5817 51.2234H69.8691H69.1565L69.1406 55.25L69.1248 59.2734L67.3828 55.25L65.6377 51.2234L65.0676 51.214C64.754 51.2109 64.488 51.2171 64.4753 51.2265Z" fill="black"/>
<path d="M72.552 51.2296C72.5393 51.239 72.5298 53.9901 72.5298 57.3414V63.4313H74.1071C74.9717 63.4313 75.811 63.4157 75.9662 63.4001C76.8467 63.3032 77.4707 63.0406 77.9362 62.5654C78.3955 62.0964 78.6774 61.4305 78.8231 60.4802C78.8674 60.1863 78.8769 59.7424 78.8864 57.5227C78.9023 54.2965 78.8801 53.8869 78.6235 53.1273C78.4683 52.6708 78.31 52.4082 77.9933 52.0987C77.42 51.536 76.7802 51.3078 75.5862 51.239C75.0002 51.2046 72.5836 51.1984 72.552 51.2296ZM76.0296 52.5677C76.7929 52.7802 77.0336 53.1929 77.1254 54.4403C77.1793 55.2281 77.1444 60.1425 77.0811 60.624C76.9544 61.5712 76.682 61.9495 75.9979 62.1371C75.8554 62.1777 75.621 62.1933 75.0414 62.2027L74.2718 62.2184V57.3508V52.4833L75.0572 52.4989C75.659 52.5114 75.8839 52.527 76.0296 52.5677Z" fill="black"/>
<path d="M100.18 57.3195V63.4313H100.908H101.637L101.643 59.2766L101.652 55.1249L103.426 59.2766L105.197 63.4313H105.745H106.292V57.3195V51.2077H105.58H104.867V55.2625C104.864 58.667 104.858 59.3078 104.823 59.2422C104.798 59.1984 104.012 57.3914 103.078 55.225C102.14 53.0585 101.361 51.2671 101.342 51.2453C101.32 51.2171 101.162 51.2077 100.747 51.2077H100.18V57.3195Z" fill="black"/>
<path d="M116.206 57.3195V63.4313H117.045H117.884V57.3195V51.2077H117.045H116.206V57.3195Z" fill="black"/>
<path d="M119.902 51.2296C119.889 51.239 119.88 53.9901 119.88 57.3414V63.4313H122.287H124.694V62.8217V62.2121H123.158H121.622V59.9768V57.7416H122.857H124.092V57.132V56.5224H122.857H121.622V54.5059V52.4895L123.152 52.4833L124.678 52.4739V51.8486V51.2234L122.3 51.214C120.992 51.2109 119.912 51.2171 119.902 51.2296Z" fill="black"/>
<path d="M126.119 57.3164V63.4313H126.974H127.829V60.5708V57.7103H128.504H129.182L129.986 60.5615L130.791 63.4157L131.624 63.4251C132.409 63.4313 132.457 63.4282 132.441 63.3782C132.302 62.9436 130.715 57.3446 130.721 57.3195C130.731 57.3039 130.8 57.2633 130.883 57.2351C131.234 57.107 131.595 56.7818 131.811 56.4036C132.232 55.6626 132.349 54.3121 132.086 53.2711C132.042 53.096 131.944 52.8396 131.845 52.6458C131.706 52.3707 131.64 52.2769 131.418 52.0612C131.199 51.8455 131.104 51.7799 130.832 51.6485C130.651 51.561 130.37 51.4547 130.205 51.411C129.606 51.2546 129.35 51.2359 127.681 51.2171L126.119 51.1984V57.3164ZM129.334 52.5051C129.679 52.5739 130.015 52.7365 130.154 52.9084C130.287 53.0679 130.404 53.3055 130.48 53.5837C130.563 53.8807 130.563 55.0405 130.48 55.3313C130.366 55.7252 130.211 55.969 129.955 56.1503C129.625 56.3848 129.093 56.4911 128.257 56.4911H127.829V54.4528V52.4176L128.457 52.4364C128.827 52.4457 129.185 52.4739 129.334 52.5051Z" fill="black"/>
<path d="M142.208 57.3195V63.4313H144.616H147.023V62.8217V62.2121H145.471H143.919V59.9768V57.7416L145.164 57.7353L146.405 57.726L146.415 57.1226L146.421 56.5224H145.17H143.919V54.5059V52.4895H145.455H146.991V51.8486V51.2077H144.6H142.208V57.3195Z" fill="black"/>
</svg>
