<svg width="28" height="52" viewBox="0 0 28 52" fill="none" xmlns="http://www.w3.org/2000/svg">
<g clip-path="url(#clip0_265_948)">
<path d="M0 1.58846V3.17691H14H28V1.58846V0H14H0V1.58846Z" fill="black"/>
<path d="M11.8496 13.3082V19.6577L11.4678 19.8013C9.3744 20.5847 7.50042 21.6857 5.77127 23.1567C3.8929 24.7451 2.40951 26.747 1.34305 29.1145C0.926125 30.0458 0.482865 31.5559 0.245874 32.8571C-0.0350038 34.3934 -0.0701135 36.2908 0.1581 37.8183C0.276595 38.6147 0.482865 39.6113 0.618915 40.0596C0.693523 40.2989 0.781297 40.5818 0.812018 40.6906C1.02268 41.413 1.58443 42.7099 2.05841 43.5672C3.65152 46.4308 6.20136 48.8592 9.12863 50.291C10.8929 51.1483 12.5431 51.6444 14.5268 51.9012C15.2553 51.9969 16.9888 52.0318 17.7349 51.9665C20.6753 51.7141 23.4358 50.7653 25.718 49.2335C26.4728 48.7286 26.7888 48.4762 27.4427 47.867L28.0001 47.3447V45.4429V43.5455L27.5525 43.985C26.1612 45.3472 24.5374 46.4743 22.7337 47.3186C21.8866 47.7146 21.8998 47.7103 21.1669 47.9714C19.6001 48.5372 18.3493 48.7765 16.765 48.8157C15.3913 48.8461 14.5926 48.7591 13.1882 48.4109C11.9681 48.1063 10.5637 47.5144 9.49728 46.8573C7.93929 45.9042 6.4208 44.442 5.43772 42.9667C4.30544 41.2607 3.66029 39.5591 3.32675 37.3831C3.18631 36.4736 3.18631 34.7285 3.32675 33.8233C3.70857 31.3905 4.51609 29.4583 5.94243 27.5695C6.53051 26.7905 7.64964 25.6851 8.54932 25.0019C8.99258 24.6668 10.0985 23.9356 10.1644 23.9356C10.1819 23.9356 10.3092 23.866 10.454 23.779C10.7612 23.5918 11.7662 23.1523 11.8189 23.1828C11.8365 23.1915 11.8496 26.4206 11.8496 30.3591V37.5137H16.4578C20.3945 37.5137 21.1362 37.505 21.5575 37.4441C23.3305 37.2004 24.6822 36.5737 25.775 35.49C26.7581 34.5152 27.3769 33.288 27.6973 31.6734C27.8816 30.7421 27.9562 30.0414 27.9869 29.0057C28.0221 27.7218 27.9343 26.7165 27.6885 25.5459C27.4647 24.5014 27.1136 23.6876 26.5387 22.9173C25.7882 21.912 24.7349 21.2026 23.3173 20.7544C23.1418 20.6978 22.997 20.6412 22.997 20.6238C22.997 20.6064 23.1023 20.5673 23.2296 20.5411C24.2039 20.3105 24.9675 19.9058 25.5336 19.3226C26.5518 18.2781 27.0478 16.8246 27.1487 14.6007C27.2014 13.4692 27.0521 12.403 26.7054 11.3803C26.4465 10.6144 26.3017 10.3054 25.9506 9.7788C25.1036 8.49933 23.765 7.66375 21.8998 7.25032C20.7192 6.9892 20.7587 6.99356 16.1199 6.97615L11.8496 6.95874V13.3082ZM18.8935 10.1835C21.3951 10.3402 22.2246 10.6753 22.9224 11.8155C23.2822 12.3987 23.3963 12.9862 23.4007 14.1873C23.4007 14.8488 23.3788 15.1447 23.3086 15.5364C23.0189 17.1771 22.3167 18.1128 21.0879 18.4957C20.2189 18.7655 19.6703 18.8221 17.7744 18.8221H16.1725L16.1594 14.4789L16.1506 10.14H17.1688C17.7305 10.14 18.5073 10.1618 18.8935 10.1835ZM17.6208 22.6562C19.2095 22.8694 20.4515 23.2567 21.4829 23.8573C22.7688 24.6058 23.4315 25.7243 23.7738 27.7218C23.8967 28.4399 23.8835 30.1241 23.7518 30.8639C23.5236 32.1173 23.0584 33.1226 22.5054 33.5621C22.0753 33.9059 21.5706 34.1409 20.9826 34.2759C20.355 34.4238 19.6308 34.4673 17.8753 34.4673H16.1506V28.5008V22.53L16.6465 22.5604C16.9142 22.5778 17.3575 22.6214 17.6208 22.6562Z" fill="black"/>
</g>
<defs>
<clipPath id="clip0_265_948">
<rect width="28" height="52" fill="white"/>
</clipPath>
</defs>
</svg>
