<svg width="171" height="90" viewBox="0 0 171 90" fill="none" xmlns="http://www.w3.org/2000/svg">
<path d="M70.9492 1.30014V2.6001H82.4672H93.9851V1.30014V0.000176668H82.4672H70.9492V1.30014Z" fill="white"/>
<path d="M80.6978 10.8912V16.0875L80.3837 16.205C78.6614 16.8461 77.1197 17.7471 75.6971 18.9509C74.1517 20.2509 72.9313 21.8892 72.0539 23.8267C71.7109 24.5888 71.3462 25.8247 71.1513 26.8896C70.9202 28.1468 70.8913 29.6996 71.0791 30.9497C71.1765 31.6015 71.3462 32.4171 71.4582 32.7839C71.5196 32.9798 71.5918 33.2113 71.617 33.3004C71.7903 33.8916 72.2525 34.9529 72.6425 35.6545C73.9531 37.998 76.0509 39.9854 78.4592 41.1571C79.9107 41.8587 81.2683 42.2647 82.9003 42.4749C83.4997 42.5532 84.9259 42.5817 85.5397 42.5283C87.9588 42.3217 90.2299 41.5453 92.1074 40.2917C92.7285 39.8785 92.9884 39.6719 93.5264 39.1733L93.985 38.7459V37.1896V35.6367L93.6167 35.9964C92.4721 37.1112 91.1362 38.0336 89.6522 38.7246C88.9553 39.0487 88.9662 39.0451 88.3632 39.2588C87.0742 39.7218 86.0452 39.9177 84.7417 39.9497C83.6116 39.9747 82.9545 39.9034 81.799 39.6185C80.7953 39.3692 79.6399 38.8848 78.7625 38.3471C77.4807 37.5671 76.2314 36.3704 75.4227 35.163C74.4911 33.7669 73.9603 32.3744 73.6859 30.5936C73.5704 29.8492 73.5704 28.4211 73.6859 27.6803C74.0001 25.6894 74.6644 24.108 75.8379 22.5623C76.3217 21.9248 77.2424 21.0202 77.9826 20.461C78.3473 20.1868 79.2572 19.5884 79.3113 19.5884C79.3258 19.5884 79.4305 19.5315 79.5496 19.4602C79.8024 19.3071 80.6292 18.9474 80.6725 18.9723C80.687 18.9794 80.6978 21.6221 80.6978 24.8453V30.7004H84.489C87.7277 30.7004 88.3379 30.6933 88.6845 30.6435C90.1432 30.444 91.2553 29.9311 92.1544 29.0443C92.9632 28.2465 93.4723 27.2422 93.7358 25.9209C93.8875 25.1587 93.9489 24.5853 93.9741 23.7376C94.003 22.687 93.9308 21.8643 93.7286 20.9062C93.5445 20.0514 93.2556 19.3854 92.7826 18.755C92.1652 17.9323 91.2986 17.3518 90.1324 16.985C89.988 16.9387 89.8688 16.8924 89.8688 16.8781C89.8688 16.8639 89.9555 16.8318 90.0602 16.8104C90.8618 16.6217 91.49 16.2905 91.9558 15.8132C92.7935 14.9585 93.2015 13.7689 93.2845 11.949C93.3278 11.023 93.2051 10.1504 92.9198 9.31342C92.7068 8.68659 92.5876 8.43372 92.2988 8.00277C91.6019 6.95568 90.5007 6.27187 88.9662 5.93352C87.9949 5.71983 88.0274 5.72339 84.211 5.70914L80.6978 5.6949V10.8912ZM86.4929 8.334C88.5509 8.46221 89.2334 8.73645 89.8075 9.66957C90.1035 10.1468 90.1974 10.6276 90.201 11.6106C90.201 12.152 90.183 12.3941 90.1252 12.7147C89.8869 14.0574 89.3092 14.8231 88.2982 15.1365C87.5833 15.3573 87.132 15.4036 85.5722 15.4036H84.2543L84.2435 11.8492L84.2362 8.29838H85.0739C85.5361 8.29838 86.1751 8.31619 86.4929 8.334ZM85.4458 18.5414C86.7528 18.7159 87.7747 19.0328 88.6232 19.5243C89.6811 20.1369 90.2263 21.0522 90.5079 22.687C90.609 23.2746 90.5982 24.653 90.4899 25.2584C90.3021 26.2841 89.9194 27.1068 89.4644 27.4666C89.1106 27.7479 88.6954 27.9402 88.2115 28.0507C87.6952 28.1717 87.0995 28.2074 85.6552 28.2074H84.2362V23.3245V18.4381L84.6442 18.463C84.8645 18.4772 85.2292 18.5129 85.4458 18.5414Z" fill="white"/>
<path d="M98.6717 58.2705C98.2673 58.3168 97.7365 58.4593 97.4368 58.6017C96.6858 58.9579 96.137 59.6381 95.8806 60.5285C95.6062 61.4723 95.5629 62.2666 95.581 65.7996C95.599 68.7984 95.6098 68.9836 95.8265 69.8241C96.0142 70.5685 96.2995 71.0885 96.7544 71.5372C97.3718 72.1356 98.1878 72.4062 99.383 72.4062C100.513 72.4027 101.242 72.1783 101.806 71.6512C102.593 70.9104 102.885 69.9773 102.929 68.0327L102.95 67.0996H102.012H101.069L101.051 68.2286C101.029 69.4787 100.993 69.7672 100.816 70.1411C100.668 70.451 100.495 70.6326 100.224 70.7537C100.018 70.8427 99.9498 70.8534 99.5238 70.8677C99.253 70.8748 98.9713 70.8641 98.8558 70.8427C98.3792 70.743 98.0651 70.5044 97.8665 70.0806C97.5885 69.4929 97.5596 69.0655 97.5596 65.3402C97.5596 61.6896 97.5921 61.1233 97.8268 60.6033C98.0687 60.0762 98.4261 59.834 99.0761 59.7628C99.726 59.6916 100.322 59.8269 100.603 60.1118C100.946 60.4644 101.026 60.8348 101.051 62.263L101.069 63.3243H102.012H102.95L102.929 62.3877C102.914 61.6682 102.893 61.3584 102.835 61.0307C102.524 59.2962 101.661 58.4557 99.9968 58.267C99.6177 58.2242 99.0652 58.2278 98.6717 58.2705Z" fill="white"/>
<path d="M107.724 58.267C106.698 58.3845 105.893 58.7905 105.388 59.4458C105.026 59.9124 104.824 60.4074 104.665 61.1981C104.586 61.5899 104.586 61.6504 104.572 65.0517C104.561 68.6346 104.568 68.8625 104.712 69.557C104.904 70.4759 105.207 71.06 105.77 71.5764C106.38 72.1391 107.225 72.4062 108.399 72.4062C110.612 72.4062 111.717 71.4803 112.154 69.2543C112.23 68.8768 112.23 68.7521 112.244 65.5503C112.262 62.0101 112.251 61.7501 112.085 61.0093C111.916 60.24 111.641 59.6702 111.233 59.2428C110.594 58.5661 109.829 58.2812 108.572 58.2491C108.265 58.242 107.882 58.2491 107.724 58.267ZM109.041 59.8055C109.294 59.8661 109.587 60.0264 109.753 60.1973C110.016 60.4644 110.154 60.8241 110.229 61.4367C110.284 61.8463 110.284 68.7557 110.229 69.1653C110.107 70.1696 109.728 70.686 109.013 70.8356C108.735 70.8926 108.016 70.8855 107.767 70.8214C107.301 70.7038 106.994 70.4545 106.799 70.045C106.532 69.4751 106.507 69.005 106.521 64.9092C106.536 61.8677 106.543 61.5293 106.601 61.223C106.637 61.0378 106.698 60.7992 106.738 60.6995C106.994 60.0121 107.612 59.6951 108.572 59.7521C108.742 59.7592 108.951 59.7842 109.041 59.8055Z" fill="white"/>
<path d="M126.221 58.2706C124.993 58.4202 124.17 58.9366 123.686 59.8697C123.491 60.2437 123.397 60.5357 123.286 61.1341C123.137 61.939 123.116 62.5373 123.13 65.7107C123.145 68.4993 123.152 68.6739 123.224 69.1226C123.383 70.0985 123.636 70.7502 124.058 71.2773C124.726 72.1036 125.676 72.4455 127.16 72.3957C128.185 72.36 128.792 72.1606 129.319 71.6833C130.149 70.9319 130.489 69.7708 130.489 67.6588V67.0997H129.55H128.611V67.9473C128.611 69.8313 128.423 70.4582 127.774 70.7538C127.553 70.8535 127.532 70.8571 126.95 70.8571C126.416 70.8571 126.333 70.8464 126.152 70.7752C125.604 70.5579 125.358 70.2017 125.196 69.379C125.141 69.1119 125.131 68.6774 125.12 65.675C125.098 61.4902 125.12 61.1127 125.416 60.5215C125.65 60.0514 125.997 59.8341 126.625 59.7629C127.308 59.6881 127.9 59.8306 128.178 60.1404C128.496 60.5001 128.571 60.8812 128.6 62.2809L128.622 63.3244H129.554H130.489V62.7439C130.489 61.3798 130.323 60.4253 129.965 59.7273C129.759 59.3248 129.333 58.8939 128.896 58.6446C128.68 58.5235 128.275 58.3881 127.911 58.3169C127.557 58.2492 126.604 58.2243 126.221 58.2706Z" fill="white"/>
<path d="M155.601 58.2704C154.362 58.4165 153.546 58.9364 153.062 59.8874C152.795 60.418 152.615 61.2942 152.55 62.3626C152.51 63.0999 152.506 67.6871 152.55 68.3852C152.622 69.532 152.882 70.5007 153.29 71.1062C153.904 72.0144 154.763 72.4168 156.106 72.4204C156.706 72.4204 156.987 72.3705 157.37 72.1889C157.803 71.9859 158.236 71.5336 158.504 71.0065C158.579 70.8533 158.652 70.7394 158.663 70.7572C158.67 70.7714 158.717 71.1169 158.76 71.5229L158.847 72.2637H159.471H160.096V68.8268V65.3899H158.309H156.521V66.0666V66.7433H157.406H158.291V67.6586C158.287 69.2293 158.132 69.9487 157.68 70.4224C157.374 70.7465 157.009 70.8747 156.377 70.8747C155.543 70.8747 155.088 70.6325 154.803 70.0449C154.518 69.4501 154.499 69.158 154.499 65.2867C154.499 61.4331 154.521 61.0912 154.777 60.5534C154.911 60.2684 155.222 59.9728 155.485 59.8767C155.774 59.7698 156.265 59.72 156.655 59.7591C157.475 59.8446 157.857 60.1723 158.02 60.938C158.081 61.2265 158.146 62.0065 158.146 62.4766V62.79H159.074H159.998L159.973 62.1418C159.915 60.6032 159.63 59.72 158.995 59.1038C158.572 58.6943 158.041 58.4449 157.33 58.3203C156.94 58.2491 155.994 58.2241 155.601 58.2704Z" fill="white"/>
<path d="M1.11214 58.3594C1.09408 58.3737 1.08325 61.5078 1.08325 65.3258V72.2637H3.11604C4.37255 72.2637 5.26799 72.2494 5.47018 72.2245C6.59309 72.0892 7.36577 71.6226 7.90737 70.7571C8.61505 69.6246 8.66921 67.3523 8.01207 66.1378C7.68351 65.5288 7.12747 65.0907 6.39451 64.8664L6.09121 64.7738L6.34757 64.7132C6.74474 64.6206 7.05887 64.4497 7.33327 64.1825C7.82793 63.6911 8.03735 63.082 8.07707 62.0243C8.12039 60.7635 7.83876 59.8588 7.2069 59.2463C6.7664 58.8189 6.25008 58.5838 5.42685 58.4414C5.04052 58.3737 4.82749 58.363 3.06911 58.3488C2.00758 58.3381 1.12658 58.3416 1.11214 58.3594ZM4.56752 59.8339C5.79514 59.9514 6.17787 60.2328 6.34035 61.1517C6.41256 61.5719 6.39451 62.4196 6.30063 62.8256C6.17065 63.3812 5.90707 63.7552 5.51351 63.9439C5.17772 64.1042 4.85276 64.1434 3.91761 64.1434H3.06911V61.9708V59.7983H3.62153C3.92122 59.7983 4.35088 59.8161 4.56752 59.8339ZM5.19938 65.7674C5.36908 65.828 5.60378 65.9384 5.71932 66.0132C6.09482 66.2589 6.3909 66.7575 6.51366 67.3559C6.6978 68.2356 6.57504 69.5177 6.25369 70.1018C6.12371 70.3404 5.83125 70.5969 5.5785 70.6895C5.20299 70.8319 4.82027 70.8747 3.914 70.8747H3.06911V68.2534V65.6321L3.9826 65.6463C4.88526 65.6606 4.89609 65.6606 5.19938 65.7674Z" fill="white"/>
<path d="M10.2435 58.363C10.2291 58.3737 10.2183 61.5078 10.2183 65.3258V72.2637H11.2112H12.2041V69.0049V65.7461L12.9696 65.7532L13.7386 65.7639L14.6557 69.012L15.5765 72.2637H16.5188H17.4648L17.111 71.0243C16.916 70.344 16.4647 68.7805 16.1108 67.5446L15.4681 65.3044L15.7859 65.1477C16.638 64.7381 17.0857 63.8941 17.1832 62.5157C17.2843 61.0947 16.9666 59.9586 16.2841 59.2997C15.6812 58.7192 14.8688 58.452 13.4859 58.3737C12.789 58.3345 10.2796 58.3238 10.2435 58.363ZM13.9011 59.8125C14.4752 59.9372 14.8363 60.1723 15.0312 60.5533C15.2334 60.9522 15.284 61.2407 15.2876 62.0243C15.2876 62.5763 15.2768 62.79 15.2298 62.9716C15.0349 63.7231 14.6232 64.1184 13.8614 64.2716C13.7134 64.3001 13.2801 64.3321 12.901 64.3464L12.2041 64.3677V62.0421V59.7164L12.9371 59.7378C13.3379 59.752 13.7711 59.784 13.9011 59.8125Z" fill="white"/>
<path d="M21.4834 58.3523C21.4834 58.3808 18.5227 72.1355 18.501 72.1996C18.483 72.2601 18.5408 72.2637 19.4037 72.2637H20.328L20.3461 72.1853C20.3569 72.139 20.505 71.3804 20.671 70.5007C20.8407 69.6175 20.9888 68.8695 20.9996 68.8339C21.0177 68.7769 21.1188 68.7734 22.4547 68.7734H23.8953L23.9134 68.8695C23.9242 68.9265 24.065 69.7101 24.2311 70.6147L24.5308 72.2637H25.4624C25.9751 72.2637 26.3939 72.2601 26.3903 72.253C26.3903 72.2494 25.7115 69.1188 24.8847 65.3009L23.379 58.3559L22.4294 58.3452C21.9095 58.3416 21.4834 58.3452 21.4834 58.3523ZM23.036 64.2324C23.3538 65.917 23.6137 67.3131 23.6137 67.3381C23.6137 67.3737 23.3718 67.3844 22.4366 67.3844H21.2596L21.2776 67.3025C21.3029 67.2134 22.4222 61.1909 22.4222 61.1588C22.4222 61.0199 22.545 61.636 23.036 64.2324Z" fill="white"/>
<path d="M27.8381 65.3009V72.2637H28.6686H29.499V67.5161V62.7722L31.5282 67.5161L33.5574 72.2637H34.182H34.8067V65.3009V58.3381H33.9943H33.1819L33.1747 62.9574L33.1638 67.5803L31.1599 62.9681L29.156 58.3559L28.4989 58.3452L27.8381 58.3381V65.3009Z" fill="white"/>
<path d="M37.0343 58.3632C37.0199 58.3739 37.009 61.508 37.009 65.326V72.271L39.0418 72.2532C40.9121 72.2389 41.0963 72.2318 41.414 72.1642C42.9702 71.8365 43.7934 70.9639 44.1184 69.3007C44.2592 68.5884 44.2736 68.1218 44.2556 64.8381C44.2411 61.8393 44.2375 61.6861 44.1653 61.3122C43.9704 60.3078 43.6165 59.6026 43.0966 59.193C42.4358 58.6695 41.7173 58.4416 40.5222 58.3739C39.8398 58.3347 37.0704 58.324 37.0343 58.3632ZM40.728 59.8341C41.5043 59.9552 41.9412 60.3149 42.1145 60.9881C42.2553 61.5223 42.2625 61.7182 42.2625 65.1764C42.2625 68.6418 42.2481 69.0834 42.1109 69.6105C41.9845 70.1127 41.7065 70.4795 41.3274 70.6612C40.9843 70.8215 40.5836 70.8749 39.7315 70.8749H38.9949V65.3367V59.7985H39.7459C40.1575 59.7985 40.598 59.8163 40.728 59.8341Z" fill="white"/>
<path d="M49.3574 59.0682V59.7983H50.5489H51.7404V66.031V72.2637H52.7153H53.6902V66.031V59.7983H54.8456H56.001V59.0682V58.3381H52.6792H49.3574V59.0682Z" fill="white"/>
<path d="M57.373 65.3009V72.2637H58.3479H59.3228V69.0049V65.7461L60.1027 65.7532L60.8826 65.7639L61.7997 69.0049C62.3052 70.7856 62.7168 72.2494 62.7168 72.253C62.7168 72.2601 63.1392 72.2637 63.6556 72.2637C64.1719 72.2637 64.5943 72.2494 64.5943 72.2352C64.5943 72.2102 62.6951 65.5715 62.6265 65.3507C62.6121 65.308 62.6554 65.2724 62.8071 65.2118C63.8217 64.8058 64.3416 63.7302 64.3416 62.0421C64.3416 61.2158 64.2369 60.6424 63.9805 60.0975C63.8144 59.7413 63.7097 59.5846 63.4642 59.3389C62.8901 58.7548 62.0019 58.4485 60.6587 58.3737C60.3121 58.3559 59.4311 58.3381 58.7018 58.3381H57.373V65.3009ZM60.6551 59.7627C61.695 59.8553 62.1427 60.1972 62.363 61.0733C62.4316 61.3404 62.4424 61.4793 62.4388 62.0599C62.4388 62.6297 62.4279 62.7793 62.363 63.0072C62.2077 63.5806 61.9513 63.9083 61.5145 64.1078C61.1498 64.2751 60.7671 64.3321 60.0088 64.3357L59.3408 64.3393L59.33 62.0777C59.3264 60.8347 59.33 59.7947 59.3408 59.7698C59.3625 59.7164 60.0594 59.7128 60.6551 59.7627Z" fill="white"/>
<path d="M66.3997 65.3009V72.2637H69.1437H71.8878V71.5692V70.8747H70.1186H68.3494V68.3282V65.7817H69.7756H71.2018V65.0872V64.3927H69.7756H68.3494V62.0955V59.7983H70.1006H71.8517V59.0682V58.3381H69.1257H66.3997V65.3009Z" fill="white"/>
<path d="M73.5018 58.3594C73.4874 58.3737 73.4766 61.5078 73.4766 65.3258V72.2637H74.3251H75.1736L75.1808 67.5446L75.1916 62.8256L76.9211 66.8751C77.8743 69.1046 78.7806 71.2273 78.9395 71.5941L79.2247 72.2637H79.853H80.4812L80.474 65.308L80.4632 58.3559H79.6508H78.8384L78.8203 62.9431L78.8023 67.5268L76.8164 62.9431L74.8269 58.3559L74.177 58.3452C73.8196 58.3416 73.5163 58.3488 73.5018 58.3594Z" fill="white"/>
<path d="M82.7091 58.363C82.6947 58.3737 82.6838 61.5078 82.6838 65.3258V72.2637H84.4819C85.4676 72.2637 86.4245 72.2459 86.6014 72.2281C87.6051 72.1176 88.3164 71.8185 88.8472 71.2771C89.3707 70.7429 89.6921 69.9843 89.8582 68.9016C89.9087 68.5668 89.9196 68.0611 89.9304 65.5324C89.9485 61.8569 89.9232 61.3903 89.6307 60.5249C89.4538 60.0049 89.2733 59.7057 88.9122 59.3531C88.2587 58.712 87.5293 58.452 86.1681 58.3737C85.5001 58.3345 82.7452 58.3274 82.7091 58.363ZM86.6736 59.8873C87.5438 60.1295 87.8182 60.5996 87.9229 62.0207C87.9843 62.9182 87.9445 68.5169 87.8723 69.0654C87.7279 70.1446 87.4174 70.5755 86.6375 70.7892C86.475 70.8355 86.2078 70.8533 85.5471 70.864L84.6697 70.8818V65.3365V59.7912L85.5651 59.809C86.2512 59.8232 86.5075 59.841 86.6736 59.8873Z" fill="white"/>
<path d="M114.205 65.3009V72.2637H115.035H115.865L115.873 67.5304L115.884 62.8007L117.905 67.5304L119.924 72.2637H120.548H121.173V65.3009V58.3381H120.361H119.548V62.9574C119.545 66.8359 119.538 67.566 119.498 67.4912C119.469 67.4414 118.573 65.3828 117.508 62.9146C116.44 60.4465 115.551 58.4057 115.53 58.3808C115.504 58.3488 115.324 58.3381 114.851 58.3381H114.205V65.3009Z" fill="white"/>
<path d="M132.475 65.3009V72.2637H133.431H134.388V65.3009V58.3381H133.431H132.475V65.3009Z" fill="white"/>
<path d="M136.688 58.363C136.674 58.3737 136.663 61.5078 136.663 65.3258V72.2637H139.407H142.151V71.5692V70.8747H140.4H138.649V68.3282V65.7817H140.057H141.465V65.0872V64.3927H140.057H138.649V62.0955V59.7983L140.393 59.7912L142.133 59.7805V59.0682V58.3559L139.421 58.3452C137.93 58.3416 136.699 58.3488 136.688 58.363Z" fill="white"/>
<path d="M143.776 65.2973V72.2637H144.751H145.726V69.0049V65.7461H146.495H147.267L148.184 68.9942L149.102 72.2459L150.051 72.2565C150.947 72.2637 151.001 72.2601 150.983 72.2031C150.824 71.7081 149.015 65.3294 149.022 65.3009C149.033 65.2831 149.112 65.2368 149.206 65.2047C149.607 65.0587 150.019 64.6883 150.264 64.2573C150.744 63.4133 150.878 61.8747 150.578 60.6887C150.528 60.4892 150.416 60.1972 150.304 59.9764C150.145 59.663 150.069 59.5561 149.816 59.3104C149.567 59.0646 149.459 58.9898 149.149 58.8402C148.943 58.7405 148.621 58.6194 148.434 58.5696C147.751 58.3915 147.459 58.3701 145.556 58.3488L143.776 58.3274V65.2973ZM147.441 59.8161C147.834 59.8945 148.217 60.0797 148.376 60.2755C148.527 60.4572 148.661 60.7279 148.748 61.0448C148.842 61.3832 148.842 62.7045 148.748 63.0357C148.618 63.4845 148.441 63.7623 148.148 63.9689C147.773 64.236 147.166 64.3571 146.213 64.3571H145.726V62.0349V59.7164L146.441 59.7378C146.863 59.7484 147.271 59.7805 147.441 59.8161Z" fill="white"/>
<path d="M162.118 65.3009V72.2637H164.862H167.606V71.5692V70.8747H165.837H164.068V68.3282V65.7817L165.487 65.7746L166.902 65.7639L166.913 65.0765L166.92 64.3927H165.494H164.068V62.0955V59.7983H165.819H167.57V59.0682V58.3381H164.844H162.118V65.3009Z" fill="white"/>
</svg>
