<svg width="20" height="15" viewBox="0 0 20 15" fill="none" xmlns="http://www.w3.org/2000/svg">
<g clip-path="url(#clip0_265_1031)">
<path fill-rule="evenodd" clip-rule="evenodd" d="M0 1.17857C0 0.527669 0.527664 0 1.17857 0C1.82948 0 2.35714 0.527668 2.35714 1.17857C2.35714 1.82948 1.82948 2.35714 1.17857 2.35714C0.527664 2.35714 0 1.82947 0 1.17857ZM1.17857 1C1.07995 1 1 1.07995 1 1.17857C1 1.27719 1.07995 1.35714 1.17857 1.35714C1.27719 1.35714 1.35714 1.27719 1.35714 1.17857C1.35714 1.07995 1.27719 1 1.17857 1Z" fill="black"/>
<path fill-rule="evenodd" clip-rule="evenodd" d="M4.92871 1.17856C4.92871 0.626274 5.37643 0.178558 5.92871 0.178558H18.143C18.6953 0.178558 19.143 0.626274 19.143 1.17856C19.143 1.73084 18.6953 2.17856 18.143 2.17856H5.92871C5.37643 2.17856 4.92871 1.73084 4.92871 1.17856Z" fill="black"/>
<path fill-rule="evenodd" clip-rule="evenodd" d="M0.178711 7.50001C0.178711 6.84911 0.706375 6.32144 1.35728 6.32144C2.00819 6.32144 2.53585 6.84911 2.53585 7.50001C2.53585 8.15092 2.00819 8.67858 1.35728 8.67858C0.706375 8.67858 0.178711 8.15092 0.178711 7.50001ZM1.35728 7.32144C1.25866 7.32144 1.17871 7.40139 1.17871 7.50001C1.17871 7.59863 1.25866 7.67858 1.35728 7.67858C1.4559 7.67858 1.53585 7.59863 1.53585 7.50001C1.53585 7.40139 1.4559 7.32144 1.35728 7.32144Z" fill="black"/>
<path fill-rule="evenodd" clip-rule="evenodd" d="M5.10742 7.5C5.10742 6.94772 5.55514 6.5 6.10742 6.5H18.3217C18.874 6.5 19.3217 6.94772 19.3217 7.5C19.3217 8.05228 18.874 8.5 18.3217 8.5H6.10742C5.55514 8.5 5.10742 8.05228 5.10742 7.5Z" fill="black"/>
<path fill-rule="evenodd" clip-rule="evenodd" d="M0.178711 13.6072C0.178711 12.9563 0.706349 12.4286 1.35728 12.4286C2.00821 12.4286 2.53585 12.9563 2.53585 13.6072C2.53585 14.258 2.00821 14.7857 1.35728 14.7857C0.706349 14.7857 0.178711 14.258 0.178711 13.6072ZM1.35728 13.4286C1.25869 13.4286 1.17871 13.5086 1.17871 13.6072C1.17871 13.7058 1.25869 13.7857 1.35728 13.7857C1.45588 13.7857 1.53585 13.7058 1.53585 13.6072C1.53585 13.5086 1.45588 13.4286 1.35728 13.4286Z" fill="black"/>
<path fill-rule="evenodd" clip-rule="evenodd" d="M5.10742 13.6071C5.10742 13.0549 5.55514 12.6071 6.10742 12.6071H18.3217C18.874 12.6071 19.3217 13.0549 19.3217 13.6071C19.3217 14.1594 18.874 14.6071 18.3217 14.6071H6.10742C5.55514 14.6071 5.10742 14.1594 5.10742 13.6071Z" fill="black"/>
</g>
<defs>
<clipPath id="clip0_265_1031">
<rect width="20" height="15" fill="white"/>
</clipPath>
</defs>
</svg>
