<svg width="59" height="66" viewBox="0 0 59 66" fill="none" xmlns="http://www.w3.org/2000/svg">
<g filter="url(#filter0_d_539_1324)">
<path fill-rule="evenodd" clip-rule="evenodd" d="M33.7445 50.6483C45.8075 48.6273 55 38.1371 55 25.5C55 11.4167 43.5833 0 29.5 0C15.4167 0 4 11.4167 4 25.5C4 38.1371 13.1925 48.6273 25.2555 50.6483L29.5 58L33.7445 50.6483Z" fill="white"/>
</g>
<g clip-path="url(#clip0_539_1324)">
<path d="M21 10.0081V11.0161H29.5H38V10.0081V9H29.5H21V10.0081Z" fill="black"/>
<path d="M28.1952 17.4456V21.4751L27.9634 21.5662C26.6924 22.0633 25.5546 22.7621 24.5048 23.6956C23.3644 24.7036 22.4637 25.9741 21.8162 27.4765C21.5631 28.0675 21.294 29.0259 21.1501 29.8516C20.9796 30.8266 20.9583 32.0307 21.0968 33.0001C21.1688 33.5055 21.294 34.138 21.3766 34.4224C21.4219 34.5743 21.4752 34.7539 21.4938 34.8229C21.6217 35.2814 21.9628 36.1044 22.2506 36.6485C23.2178 38.4657 24.7659 40.0068 26.5432 40.9154C27.6144 41.4595 28.6162 41.7744 29.8206 41.9373C30.263 41.9981 31.3155 42.0202 31.7684 41.9787C33.5537 41.8186 35.2297 41.2165 36.6153 40.2443C37.0736 39.924 37.2655 39.7638 37.6625 39.3771L38.0009 39.0457V37.8388V36.6346L37.7291 36.9136C36.8844 37.778 35.8985 38.4933 34.8034 39.0291C34.2891 39.2805 34.2971 39.2777 33.8521 39.4434C32.9009 39.8024 32.1415 39.9543 31.1796 39.9792C30.3456 39.9985 29.8606 39.9433 29.0079 39.7223C28.2672 39.529 27.4145 39.1534 26.767 38.7364C25.8211 38.1315 24.8992 37.2036 24.3023 36.2673C23.6148 35.1847 23.2231 34.1048 23.0206 32.7239C22.9354 32.1467 22.9354 31.0392 23.0206 30.4648C23.2525 28.9209 23.7427 27.6947 24.6087 26.496C24.9658 26.0017 25.6452 25.3002 26.1915 24.8666C26.4606 24.6539 27.1321 24.1899 27.172 24.1899C27.1827 24.1899 27.26 24.1458 27.3479 24.0905C27.5344 23.9718 28.1446 23.6928 28.1766 23.7121C28.1872 23.7177 28.1952 25.7669 28.1952 28.2664V32.8068H30.993C33.3832 32.8068 33.8335 32.8013 34.0893 32.7626C35.1658 32.6079 35.9865 32.2102 36.6499 31.5225C37.2468 30.9039 37.6225 30.1251 37.817 29.1004C37.9289 28.5094 37.9742 28.0648 37.9929 27.4074C38.0142 26.5927 37.9609 25.9547 37.8117 25.2118C37.6758 24.549 37.4626 24.0325 37.1136 23.5437C36.6579 22.9057 36.0184 22.4555 35.1578 22.1711C35.0512 22.1352 34.9633 22.0993 34.9633 22.0882C34.9633 22.0772 35.0272 22.0523 35.1045 22.0357C35.696 21.8894 36.1597 21.6325 36.5034 21.2624C37.1216 20.5996 37.4227 19.6771 37.484 18.2659C37.5159 17.5478 37.4253 16.8712 37.2148 16.2221C37.0576 15.736 36.9697 15.54 36.7565 15.2058C36.2423 14.3938 35.4296 13.8635 34.2971 13.6012C33.5804 13.4355 33.6043 13.4382 30.7879 13.4272L28.1952 13.4161V17.4456ZM32.4719 15.4626C33.9907 15.5621 34.4943 15.7747 34.918 16.4983C35.1365 16.8684 35.2057 17.2412 35.2084 18.0035C35.2084 18.4233 35.1951 18.6111 35.1525 18.8597C34.9766 19.9009 34.5503 20.4946 33.8042 20.7377C33.2766 20.9089 32.9435 20.9448 31.7924 20.9448H30.8198L30.8119 18.1885L30.8065 15.435H31.4247C31.7658 15.435 32.2374 15.4488 32.4719 15.4626ZM31.6992 23.378C32.6637 23.5133 33.4178 23.7591 34.044 24.1402C34.8247 24.6153 35.2271 25.325 35.4349 26.5927C35.5095 27.0484 35.5015 28.1172 35.4216 28.5867C35.283 29.3821 35.0006 30.0201 34.6648 30.2991C34.4037 30.5172 34.0973 30.6664 33.7402 30.752C33.3592 30.8459 32.9195 30.8735 31.8537 30.8735H30.8065V27.0871V23.2979L31.1076 23.3172C31.2702 23.3283 31.5393 23.3559 31.6992 23.378Z" fill="black"/>
</g>
<defs>
<filter id="filter0_d_539_1324" x="0" y="0" width="59" height="66" filterUnits="userSpaceOnUse" color-interpolation-filters="sRGB">
<feFlood flood-opacity="0" result="BackgroundImageFix"/>
<feColorMatrix in="SourceAlpha" type="matrix" values="0 0 0 0 0 0 0 0 0 0 0 0 0 0 0 0 0 0 127 0" result="hardAlpha"/>
<feOffset dy="4"/>
<feGaussianBlur stdDeviation="2"/>
<feComposite in2="hardAlpha" operator="out"/>
<feColorMatrix type="matrix" values="0 0 0 0 0 0 0 0 0 0 0 0 0 0 0 0 0 0 0.25 0"/>
<feBlend mode="normal" in2="BackgroundImageFix" result="effect1_dropShadow_539_1324"/>
<feBlend mode="normal" in="SourceGraphic" in2="effect1_dropShadow_539_1324" result="shape"/>
</filter>
<clipPath id="clip0_539_1324">
<rect width="17" height="33" fill="white" transform="translate(21 9)"/>
</clipPath>
</defs>
</svg>
