<svg width="21" height="22" viewBox="0 0 21 22" fill="none" xmlns="http://www.w3.org/2000/svg">
<g clip-path="url(#clip0_177_338)">
<path d="M19.2361 12.324C18.6901 16.7851 15.3931 17.0703 14.7841 17.274C14.5321 17.3555 12.1171 17.9463 9.11413 17.7629L5.83813 21.287V17.2333H5.81713C1.42813 16.0111 1.57513 11.4685 1.61713 9.08514C1.65913 6.70181 2.12113 4.74625 3.46513 3.42218C5.88013 1.26292 10.8361 1.58885 10.8361 1.58885C15.0361 1.60922 17.0311 2.85181 17.4931 3.27959C19.0261 4.58329 19.8241 7.72033 19.2361 12.324ZM18.6271 2.13884C18.0811 1.64996 15.8551 0.040697 10.8991 0.0203266C10.8991 0.0203266 5.06113 -0.32597 2.20513 2.26107C0.630127 3.82959 0.0631268 6.13144 0.0211268 8.98329C-0.0418732 11.8351 -0.104873 17.1925 5.08213 18.6388V20.8592C5.08213 20.8592 5.04013 21.7555 5.64913 21.9388C6.36313 22.1629 6.78313 21.4703 7.47613 20.737C7.85413 20.3296 8.37913 19.7388 8.75713 19.2907C12.3061 19.5963 15.0361 18.9037 15.3511 18.8018C16.0651 18.5777 20.1181 18.0481 20.7901 12.7111C21.4621 7.21107 20.4541 3.70736 18.6271 2.13884Z" fill="white"/>
<path d="M15.4561 12.9963C15.4561 12.9963 14.7841 12.4463 14.4691 12.2019C14.1541 11.9778 13.6711 11.6722 13.3981 11.5297C12.9151 11.2648 12.4111 11.4278 12.2011 11.6926L11.7811 12.2222C11.5711 12.4871 11.2141 12.4463 11.1301 12.4259C10.5001 12.263 9.82813 11.8963 9.13513 11.2445C8.44213 10.5926 8.02213 9.90002 7.87513 9.20743L7.85413 9.16669C7.81213 8.8815 7.85413 8.73891 7.98013 8.53521L8.00113 8.51484C8.29513 8.25002 8.82013 7.94447 8.90413 7.63891C9.11413 7.10928 8.19013 6.00928 8.06413 5.82595C8.06413 5.82595 7.39213 4.97039 7.16113 4.80743C6.90913 4.60373 6.51013 4.4815 6.11113 4.72595H6.09013C4.93513 5.47965 4.53613 5.90743 4.64113 6.55928L4.70413 6.8241C5.29213 8.59632 6.40513 10.5111 8.08513 12.2019C9.74413 13.8519 11.5501 14.85 13.3141 15.5426C13.7761 15.6852 14.2591 15.563 14.7421 15.1556C15.1201 14.8093 15.4141 14.4426 15.6241 14.0556C15.8551 13.6482 15.7711 13.2611 15.4561 12.9963Z" fill="white"/>
<path d="M12.7049 9.08529C12.6419 9.08529 12.5789 9.02418 12.5789 8.96306C12.5579 8.49455 12.4319 8.14825 12.2009 7.90381C11.9699 7.65936 11.6339 7.53714 11.1929 7.51677C11.1299 7.51677 11.0669 7.45566 11.0669 7.37418C11.0669 7.29269 11.1299 7.25195 11.2139 7.25195C11.7389 7.27232 12.1379 7.43529 12.4109 7.72047C12.6839 8.00566 12.8309 8.41306 12.8729 8.94269C12.8519 9.02418 12.7889 9.08529 12.7049 9.08529Z" fill="white"/>
<path d="M14.007 9.53315C13.923 9.53315 13.881 9.47204 13.881 9.39056C13.902 8.51463 13.629 7.76093 13.083 7.17019C12.81 6.86463 12.474 6.64056 12.096 6.4776C11.718 6.31463 11.277 6.21278 10.773 6.17204C10.71 6.17204 10.647 6.11093 10.647 6.02945C10.647 5.94797 10.71 5.90723 10.794 5.90723C11.844 5.98871 12.684 6.35537 13.272 6.98686C13.86 7.63871 14.154 8.43315 14.133 9.39056C14.154 9.47204 14.091 9.53315 14.007 9.53315Z" fill="white"/>
<path d="M15.3511 10.0425C15.2881 10.0425 15.2251 9.98143 15.2251 9.92032C15.2251 9.14625 15.0991 8.43328 14.8681 7.82217C14.6371 7.21106 14.2801 6.68143 13.8181 6.23328C13.3561 5.78513 12.8311 5.43884 12.2641 5.21476C11.6971 4.99069 11.0461 4.86847 10.3531 4.86847C10.2901 4.86847 10.2271 4.80736 10.2271 4.74625C10.2271 4.66476 10.2901 4.62402 10.3531 4.62402C11.8021 4.64439 13.0201 5.11291 14.007 6.07032C14.49 6.53884 14.8681 7.10921 15.1201 7.76106C15.3721 8.41291 15.4981 9.14625 15.4981 9.96106C15.4981 9.98143 15.4351 10.0425 15.3511 10.0425Z" fill="white"/>
</g>
<defs>
<clipPath id="clip0_177_338">
<rect width="21" height="22" fill="white"/>
</clipPath>
</defs>
</svg>
